<?xml version="1.0" encoding="utf-8"?>
<!-- Generator: Adobe Illustrator 24.1.0, SVG Export Plug-In . SVG Version: 6.00 Build 0)  -->
<svg version="1.1" id="Capa_1" xmlns="http://www.w3.org/2000/svg" xmlns:xlink="http://www.w3.org/1999/xlink" x="0px" y="0px" width="56" height="50"
	 viewBox="0 0 71 74" style="enable-background:new 0 0 71 74;" xml:space="preserve">
<style type="text/css">
	.st0{fill:#051036;}
	.st1{fill:#051036;}
</style>
<g>
	<g>
		<g>
			<g>
				<path class="st0" d="M69.8,59.5H24.2L7.9,43.3c-0.5-0.5-1.2-0.5-1.7,0s-0.5,1.2,0,1.7c0,0,0,0,0,0l5.7,5.7l-6.6,8.8H1.2
					C0.5,59.5,0,60,0,60.7s0.5,1.2,1.2,1.2h6.1l-5.9,8.8c-0.4,0.5-0.2,1.3,0.3,1.6C2.3,72.7,3,72.5,3.4,72l6.7-10.1h14.8v9.5
					c0,0.7,0.5,1.2,1.2,1.2s1.2-0.5,1.2-1.2v-9.5h32.5L66.5,72c0.4,0.5,1.1,0.7,1.6,0.3c0.5-0.4,0.7-1.1,0.3-1.6l-5.9-8.8h7.3
					c0.7,0,1.2-0.5,1.2-1.2S70.5,59.5,69.8,59.5z M8.3,59.5l5.4-7.2l7.2,7.2H8.3z"/>
			</g>
		</g>
	</g>
	<g>
		<g>
			<g>
				<path class="st0" d="M66.3,51.2H28.9l-1.7-1.7V25.6c0.7,0.5,1.5,0.7,2.4,0.7c0.9,0,1.9-0.3,2.6-0.9c0.6-0.4,1.3-0.4,1.8,0
					c1.6,1.2,3.7,1.2,5.3,0c0.6-0.4,1.3-0.4,1.8,0c1.7,1.2,4,1.2,5.5-0.2c0.4-0.3,0.6-0.8,0.6-1.4C46.9,13.4,37.6,5,26,5
					C13.3,5,5.1,13.4,4.7,23.9c0,0.5,0.2,1,0.6,1.4c0.8,0.7,1.8,1.1,2.9,1.1c0.9,0,1.9-0.3,2.6-0.9c0.6-0.4,1.3-0.4,1.8,0
					c1.6,1.2,3.7,1.2,5.3,0c0.6-0.4,1.3-0.4,1.8,0c1.5,1.1,3.5,1.2,5,0.2v21.5l-8.6-8.6c-0.5-0.5-1.2-0.5-1.7,0L11,42.1
					c-0.5,0.5-0.5,1.2,0,1.7L25.2,58c0.2,0.2,0.5,0.3,0.8,0.3h40.2c0.7,0,1.2-0.5,1.2-1.2v-4.7C67.4,51.7,66.9,51.2,66.3,51.2z
					 M23.7,23.6c-0.4,0.3-0.8,0.4-1.2,0.4c-0.4,0-0.9-0.2-1.2-0.4c-1.4-1-3.2-1-4.6,0c-0.7,0.6-1.7,0.6-2.5,0c-1.4-1-3.2-1-4.6,0
					C9.2,23.8,8.7,24,8.3,24c-0.4,0-0.8-0.1-1.2-0.4C7.6,14.1,15.4,7.4,26,7.4c10.1,0,18.3,7.1,18.9,16.2c-0.3,0.2-0.7,0.4-1.2,0.4
					c-0.4,0-0.9-0.2-1.2-0.4c-1.4-1-3.2-1-4.6,0c-0.7,0.6-1.7,0.6-2.5,0c-1.4-1-3.2-1-4.6,0c-0.7,0.6-1.7,0.6-2.5,0
					C27,22.6,25.1,22.6,23.7,23.6z M65.1,55.9H26.5l-13-13l1.9-1.9l9.8,9.8l2.4,2.4c0.2,0.2,0.5,0.3,0.8,0.3h36.7V55.9z"/>
			</g>
		</g>
	</g>
	<g>
		<g>
			<g>
				<path class="st1" d="M60.3,6.8c-3,0-5.4,2.4-5.4,5.4c0,3,2.4,5.4,5.4,5.4c3,0,5.4-2.4,5.4-5.4S63.3,6.8,60.3,6.8z"/>
			</g>
		</g>
	</g>
	<g>
		<g>
			<g>
				<path class="st0" d="M53,11h-2.1c-0.7,0-1.2,0.5-1.2,1.2s0.5,1.2,1.2,1.2H53c0.7,0,1.2-0.5,1.2-1.2S53.6,11,53,11z"/>
			</g>
		</g>
	</g>
	<g>
		<g>
			<g>
				<path class="st0" d="M56,6.1l-1.5-1.5c-0.5-0.5-1.2-0.4-1.7,0c-0.4,0.5-0.4,1.2,0,1.6l1.5,1.5c0.5,0.5,1.2,0.4,1.7,0
					C56.4,7.3,56.4,6.6,56,6.1z"/>
			</g>
		</g>
	</g>
	<g>
		<g>
			<g>
				<path class="st0" d="M60.3,1.5c-0.7,0-1.2,0.5-1.2,1.2v2.1c0,0.7,0.5,1.2,1.2,1.2s1.2-0.5,1.2-1.2V2.7C61.5,2,61,1.5,60.3,1.5z"
					/>
			</g>
		</g>
	</g>
	<g>
		<g>
			<g>
				<path class="st0" d="M67.9,4.6c-0.5-0.5-1.2-0.5-1.7,0l-1.5,1.5c-0.5,0.5-0.5,1.2,0,1.7s1.2,0.5,1.7,0c0,0,0,0,0,0l1.5-1.5
					C68.3,5.8,68.3,5.1,67.9,4.6z"/>
			</g>
		</g>
	</g>
	<g>
		<g>
			<g>
				<path class="st0" d="M69.8,11h-2.1c-0.7,0-1.2,0.5-1.2,1.2s0.5,1.2,1.2,1.2h2.1c0.7,0,1.2-0.5,1.2-1.2S70.5,11,69.8,11z"/>
			</g>
		</g>
	</g>
	<g>
		<g>
			<g>
				<path class="st0" d="M67.9,18l-1.5-1.5c-0.5-0.5-1.2-0.5-1.7,0c-0.5,0.5-0.5,1.2,0,1.7l1.5,1.5c0.5,0.5,1.2,0.4,1.7,0
					C68.3,19.2,68.3,18.5,67.9,18z"/>
			</g>
		</g>
	</g>
	<g>
		<g>
			<g>
				<path class="st0" d="M60.3,18.3c-0.7,0-1.2,0.5-1.2,1.2v2.1c0,0.7,0.5,1.2,1.2,1.2s1.2-0.5,1.2-1.2v-2.1
					C61.5,18.9,61,18.3,60.3,18.3z"/>
			</g>
		</g>
	</g>
	<g>
		<g>
			<g>
				<path class="st0" d="M56,16.5c-0.5-0.4-1.2-0.4-1.6,0L52.8,18c-0.5,0.5-0.5,1.2,0,1.7c0.5,0.5,1.2,0.5,1.7,0c0,0,0,0,0,0
					l1.5-1.5C56.4,17.7,56.4,17,56,16.5z"/>
			</g>
		</g>
	</g>
</g>
</svg>
