<svg xmlns="http://www.w3.org/2000/svg" xmlns:xlink="http://www.w3.org/1999/xlink" version="1.1" width="1000" height="1000" viewBox="0 0 1000 1000" xml:space="preserve">
<desc>Created with Fabric.js 3.5.0</desc>
<defs>
</defs>
<rect x="0" y="0" width="100%" height="100%" fill="rgba(255,255,255,0)"/>
<g transform="matrix(0.9091 0 0 0.8838 500.0045 512.6483)" id="318714">
<g style="" vector-effect="non-scaling-stroke">
		<g transform="matrix(1 0 0 1 -450 -450)">
<rect style="stroke: none; stroke-width: 1; stroke-dasharray: none; stroke-linecap: butt; stroke-dashoffset: 0; stroke-linejoin: miter; stroke-miterlimit: 4; is-custom-font: none; font-file-url: none; fill: rgb(255,255,255); fill-opacity: 0; fill-rule: nonzero; opacity: 1;" x="-50" y="-50" rx="0" ry="0" width="100" height="100"/>
</g>
		<g transform="matrix(4.9688 0 0 4.9688 -349.2256 0.0015)" id="312527">
<circle style="stroke: rgb(255,255,255); stroke-width: 1; stroke-dasharray: none; stroke-linecap: butt; stroke-dashoffset: 0; stroke-linejoin: miter; stroke-miterlimit: 4; is-custom-font: none; font-file-url: none; fill: rgb(53,84,209); fill-rule: nonzero; opacity: 1;" vector-effect="non-scaling-stroke" cx="0" cy="0" r="30"/>
</g>
		<g transform="matrix(4.9688 0 0 4.9688 -344.5062 -0.4962)" id="312527">
<path style="stroke: rgb(255,255,255); stroke-width: 1; stroke-dasharray: none; stroke-linecap: butt; stroke-dashoffset: 0; stroke-linejoin: miter; stroke-miterlimit: 4; is-custom-font: none; font-file-url: none; fill: rgb(255,255,255); fill-rule: nonzero; opacity: 1;" vector-effect="non-scaling-stroke" transform=" translate(-32.95, -31.9)" d="M 39.6 18.2 c 1.1 0.5 2 1.1 2.7 2 c 0.6 0.7 1.1 1.5 1.5 2.4 c 0.4 0.9 0.5 1.9 0.5 3.1 c 0 1.4 -0.3 2.7 -1 4.1 s -1.8 2.3 -3.4 2.8 c 1.3 0.5 2.3 1.3 2.8 2.3 c 0.6 1 0.8 2.5 0.8 4.5 v 1.9 c 0 1.3 0.1 2.2 0.2 2.7 c 0.2 0.7 0.5 1.3 1.1 1.7 v 0.7 h -6.7 c -0.2 -0.6 -0.3 -1.2 -0.4 -1.6 c -0.2 -0.8 -0.2 -1.6 -0.3 -2.5 v -2.7 c 0 -1.8 -0.3 -3.1 -1 -3.7 c -0.6 -0.6 -1.8 -0.9 -3.5 -0.9 H 27 v 11.4 h -5.9 v -29 H 35 c 2 0.1 3.6 0.4 4.6 0.8 m -12.5 4.3 v 7.8 h 6.5 c 1.3 0 2.3 -0.2 2.9 -0.5 c 1.1 -0.6 1.7 -1.6 1.7 -3.3 c 0 -1.8 -0.6 -2.9 -1.7 -3.5 c -0.6 -0.3 -1.6 -0.5 -2.8 -0.5 h -6.6" stroke-linecap="round"/>
</g>
		<g transform="matrix(1 0 0 1 182.9893 -1.874)" id="50509">
<path style="stroke: none; stroke-width: 0; stroke-dasharray: none; stroke-linecap: butt; stroke-dashoffset: 0; stroke-linejoin: miter; stroke-miterlimit: 4; is-custom-font: none; font-file-url: none; fill: rgb(53,84,209); fill-rule: nonzero; opacity: 1;" transform=" translate(26.11, -5.78)" d="M -328.36 45.52 L -333.26 45.52 Q -341.9 45.52 -341.9 40.92 L -341.9 40.92 L -341.9 -49.8 Q -341.9 -55.56 -336.14 -55.56 L -336.14 -55.56 L -308.06 -55.56 Q -289.34 -55.56 -280.77 -48.51 Q -272.2 -41.45 -272.2 -28.49 L -272.2 -28.49 Q -272.2 -20.14 -276.88 -14.31 Q -281.56 -8.48 -289.05 -5.6 L -289.05 -5.6 L -289.05 -5.02 Q -286.32 -4.01 -283.44 -0.2 Q -280.56 3.62 -278.68 8.23 L -278.68 8.23 L -266.01 39.91 Q -265.29 41.78 -265.29 42.64 L -265.29 42.64 Q -265.29 45.52 -273.93 45.52 L -273.93 45.52 L -279.84 45.52 Q -283 45.52 -285.24 44.88 Q -287.47 44.23 -288.19 42.5 L -288.19 42.5 L -299.56 14.42 Q -301.72 10.1 -304.39 7.94 Q -307.05 5.78 -314.11 5.78 L -314.11 5.78 L -319.72 5.78 L -319.72 40.92 Q -319.72 45.52 -328.36 45.52 L -328.36 45.52 Z M -319.72 -36.7 L -319.72 -13.37 L -306.04 -13.37 Q -303.02 -13.37 -300.5 -15.03 Q -297.98 -16.68 -296.47 -19.49 Q -294.96 -22.3 -294.96 -25.76 L -294.96 -25.76 Q -294.96 -30.8 -298.2 -33.75 Q -301.44 -36.7 -307.05 -36.7 L -307.05 -36.7 L -319.72 -36.7 Z M -222.96 46.39 L -222.96 46.39 Q -240.09 46.39 -249.02 36.31 Q -257.95 26.23 -257.95 7.51 L -257.95 7.51 Q -257.95 -11.36 -249.02 -21.29 Q -240.09 -31.23 -222.96 -31.23 L -222.96 -31.23 Q -205.82 -31.23 -196.96 -21.29 Q -188.11 -11.36 -188.11 7.51 L -188.11 7.51 Q -188.11 26.23 -196.96 36.31 Q -205.82 46.39 -222.96 46.39 Z M -222.96 29.54 L -222.96 29.54 Q -216.04 29.54 -212.88 23.92 Q -209.71 18.31 -209.71 7.51 L -209.71 7.51 Q -209.71 -3.29 -212.88 -8.84 Q -216.04 -14.38 -222.96 -14.38 L -222.96 -14.38 Q -229.87 -14.38 -233.11 -8.84 Q -236.35 -3.29 -236.35 7.51 L -236.35 7.51 Q -236.35 18.31 -233.11 23.92 Q -229.87 29.54 -222.96 29.54 Z M -156.28 74.9 L -158.73 74.9 Q -167.37 74.9 -167.37 71.88 L -167.37 71.88 Q -167.37 71.3 -167.23 70.65 Q -167.08 70 -166.8 69.28 L -166.8 69.28 L -154.84 37.46 L -154.84 53.3 L -181.48 -24.6 Q -181.63 -25.32 -181.84 -25.97 Q -182.06 -26.62 -182.06 -27.2 L -182.06 -27.2 Q -182.06 -30.36 -173.28 -30.36 L -173.28 -30.36 L -168.67 -30.36 Q -165.5 -30.36 -163.34 -29.72 Q -161.18 -29.07 -160.6 -27.34 L -160.6 -27.34 L -152.11 -0.7 Q -151.39 1.75 -150.24 6.93 Q -149.08 12.12 -148.08 16.72 L -148.08 16.72 L -147.5 16.72 Q -146.49 12.12 -145.34 6.86 Q -144.19 1.6 -143.47 -0.7 L -143.47 -0.7 L -134.97 -27.34 Q -134.4 -29.07 -132.24 -29.72 Q -130.08 -30.36 -126.91 -30.36 L -126.91 -30.36 L -123.45 -30.36 Q -114.81 -30.36 -114.81 -27.2 L -114.81 -27.2 Q -114.81 -26.19 -115.24 -24.6 L -115.24 -24.6 L -148.22 71.88 Q -148.8 73.6 -150.96 74.25 Q -153.12 74.9 -156.28 74.9 L -156.28 74.9 Z M -88.32 46.39 L -88.32 46.39 Q -99.98 46.39 -104.8 40.27 Q -109.63 34.15 -109.63 25.36 L -109.63 25.36 Q -109.63 20.9 -108.26 16.22 Q -106.89 11.54 -102.72 7.51 Q -98.54 3.48 -90.26 1.03 Q -81.98 -1.42 -68.3 -1.42 L -68.3 -1.42 L -68.3 -6.17 Q -68.3 -10.35 -70.96 -12.36 Q -73.63 -14.38 -79.53 -14.38 L -79.53 -14.38 Q -84.72 -14.38 -88.53 -13.23 Q -92.35 -12.08 -94.72 -10.92 Q -97.1 -9.77 -97.96 -9.77 L -97.96 -9.77 Q -99.4 -9.77 -101.2 -12 Q -103 -14.24 -104.23 -17.04 Q -105.45 -19.85 -105.45 -21.29 L -105.45 -21.29 Q -105.45 -23.74 -101.92 -26.04 Q -98.4 -28.35 -92.13 -29.79 Q -85.87 -31.23 -77.95 -31.23 L -77.95 -31.23 Q -66.57 -31.23 -59.8 -28.13 Q -53.04 -25.04 -50.01 -19.64 Q -46.99 -14.24 -46.99 -7.18 L -46.99 -7.18 L -46.99 19.89 Q -46.99 27.38 -46.56 31.34 Q -46.12 35.3 -45.69 37.24 Q -45.26 39.19 -45.26 40.77 L -45.26 40.77 Q -45.26 42.07 -47.2 42.93 Q -49.15 43.8 -51.96 44.37 Q -54.76 44.95 -57.43 45.16 Q -60.09 45.38 -61.39 45.38 L -61.39 45.38 Q -63.69 45.38 -64.77 43.72 Q -65.85 42.07 -66.28 39.69 Q -66.72 37.32 -67.15 35.44 L -67.15 35.44 Q -67.58 36.31 -70.1 38.97 Q -72.62 41.64 -77.16 44.01 Q -81.69 46.39 -88.32 46.39 Z M -81.26 29.54 L -81.26 29.54 Q -77.08 29.54 -73.56 26.95 Q -70.03 24.36 -68.3 20.47 L -68.3 20.47 L -68.3 12.55 Q -73.48 12.55 -77.23 13.27 Q -80.97 13.99 -83.49 15.28 Q -86.01 16.58 -87.24 18.6 Q -88.46 20.61 -88.46 23.2 L -88.46 23.2 Q -88.46 25.94 -86.66 27.74 Q -84.86 29.54 -81.26 29.54 Z M -7.1 46.39 L -7.1 46.39 Q -12.14 46.39 -16.1 45.02 Q -20.06 43.65 -22.72 40.77 Q -25.39 37.89 -26.76 33.5 Q -28.12 29.11 -28.12 23.06 L -28.12 23.06 L -28.12 -58.73 Q -28.12 -63.34 -19.48 -63.34 L -19.48 -63.34 L -15.45 -63.34 Q -6.81 -63.34 -6.81 -58.73 L -6.81 -58.73 L -6.81 23.35 Q -6.81 26.52 -5.59 28.03 Q -4.36 29.54 -1.63 29.54 L -1.63 29.54 Q -0.62 29.54 0.53 29.25 Q 1.68 28.96 2.26 28.96 L 2.26 28.96 Q 3.7 28.96 4.71 31.34 Q 5.72 33.72 6.22 36.24 Q 6.72 38.76 6.72 39.33 L 6.72 39.33 Q 6.72 42.64 4.2 44.16 Q 1.68 45.67 -1.56 46.03 Q -4.8 46.39 -7.1 46.39 Z M 47.62 45.52 L 42.58 45.52 Q 33.94 45.52 33.94 40.92 L 33.94 40.92 L 33.94 -36.7 L 11.04 -36.7 Q 6.72 -36.7 6.72 -43.9 L 6.72 -43.9 L 6.72 -48.36 Q 6.72 -55.56 11.04 -55.56 L 11.04 -55.56 L 79.16 -55.56 Q 83.48 -55.56 83.48 -48.36 L 83.48 -48.36 L 83.48 -43.9 Q 83.48 -36.7 79.16 -36.7 L 79.16 -36.7 L 56.26 -36.7 L 56.26 40.92 Q 56.26 45.52 47.62 45.52 L 47.62 45.52 Z M 115.59 46.39 L 115.59 46.39 Q 98.45 46.39 89.52 36.31 Q 80.6 26.23 80.6 7.51 L 80.6 7.51 Q 80.6 -11.36 89.52 -21.29 Q 98.45 -31.23 115.59 -31.23 L 115.59 -31.23 Q 132.72 -31.23 141.58 -21.29 Q 150.44 -11.36 150.44 7.51 L 150.44 7.51 Q 150.44 26.23 141.58 36.31 Q 132.72 46.39 115.59 46.39 Z M 115.59 29.54 L 115.59 29.54 Q 122.5 29.54 125.67 23.92 Q 128.84 18.31 128.84 7.51 L 128.84 7.51 Q 128.84 -3.29 125.67 -8.84 Q 122.5 -14.38 115.59 -14.38 L 115.59 -14.38 Q 108.68 -14.38 105.44 -8.84 Q 102.2 -3.29 102.2 7.51 L 102.2 7.51 Q 102.2 18.31 105.44 23.92 Q 108.68 29.54 115.59 29.54 Z M 186.15 46.39 L 186.15 46.39 Q 175.35 46.39 170.16 40.7 Q 164.98 35.01 164.98 23.06 L 164.98 23.06 L 164.98 -25.76 Q 164.98 -30.36 173.62 -30.36 L 173.62 -30.36 L 177.65 -30.36 Q 186.29 -30.36 186.29 -25.76 L 186.29 -25.76 L 186.29 19.89 Q 186.29 24.07 188.24 26.44 Q 190.18 28.82 194.93 28.82 L 194.93 28.82 Q 199.4 28.82 202.28 25.87 Q 205.16 22.92 206.45 20.47 L 206.45 20.47 L 206.45 -25.76 Q 206.45 -30.36 215.09 -30.36 L 215.09 -30.36 L 219.12 -30.36 Q 227.76 -30.36 227.76 -25.76 L 227.76 -25.76 L 227.76 19.89 Q 227.76 27.38 228.2 31.34 Q 228.63 35.3 229.06 37.24 Q 229.49 39.19 229.49 40.77 L 229.49 40.77 Q 229.49 42.07 227.55 42.93 Q 225.6 43.8 222.8 44.37 Q 219.99 44.95 217.32 45.16 Q 214.66 45.38 213.36 45.38 L 213.36 45.38 Q 211.06 45.38 209.98 43.72 Q 208.9 42.07 208.47 39.69 Q 208.04 37.32 207.6 35.44 L 207.6 35.44 Q 204.44 39.48 198.82 42.93 Q 193.2 46.39 186.15 46.39 Z M 258.29 45.52 L 254.26 45.52 Q 245.62 45.52 245.62 40.92 L 245.62 40.92 L 245.62 -4.73 Q 245.62 -11.93 245.19 -15.82 Q 244.76 -19.71 244.32 -21.65 Q 243.89 -23.6 243.89 -25.04 L 243.89 -25.04 Q 243.89 -26.33 245.84 -27.2 Q 247.78 -28.06 250.59 -28.64 Q 253.4 -29.21 256.06 -29.43 Q 258.72 -29.64 260.02 -29.64 L 260.02 -29.64 Q 262.32 -29.64 263.4 -28.06 Q 264.48 -26.48 264.92 -24.32 Q 265.35 -22.16 265.78 -20.28 L 265.78 -20.28 Q 268.08 -24.46 271.68 -27.84 Q 275.28 -31.23 281.48 -31.23 L 281.48 -31.23 Q 286.8 -31.23 288.24 -29.07 Q 289.68 -26.91 289.68 -23.45 L 289.68 -23.45 Q 289.68 -22.16 289.18 -19.2 Q 288.68 -16.25 287.67 -13.8 Q 286.66 -11.36 285.22 -11.36 L 285.22 -11.36 Q 283.78 -11.36 282.2 -11.93 Q 280.61 -12.51 278.45 -12.51 L 278.45 -12.51 Q 275.57 -12.51 273.27 -11.28 Q 270.96 -10.06 269.38 -8.4 Q 267.8 -6.75 266.93 -5.31 L 266.93 -5.31 L 266.93 40.92 Q 266.93 45.52 258.29 45.52 L 258.29 45.52 Z" stroke-linecap="round"/>
</g>
</g>
</g>
</svg>