<svg xmlns="http://www.w3.org/2000/svg" xmlns:xlink="http://www.w3.org/1999/xlink" version="1.1" width="1000" height="1000" viewBox="0 0 1000 1000" xml:space="preserve">
<desc>Created with Fabric.js 3.5.0</desc>
<defs>
</defs>
<rect x="0" y="0" width="100%" height="100%" fill="rgba(255,255,255,0)"/>
<g transform="matrix(0.4211 0 0 0.3964 217.0114 501.4171)" id="103526">
<g style="" vector-effect="non-scaling-stroke">
		<g transform="matrix(12.5 0 0 12.5 0 0)">
<circle style="stroke: none; stroke-width: 1; stroke-dasharray: none; stroke-linecap: butt; stroke-dashoffset: 0; stroke-linejoin: miter; stroke-miterlimit: 4; is-custom-font: none; font-file-url: none; fill: rgb(255,255,255); fill-rule: nonzero; opacity: 1;" cx="0" cy="0" r="30"/>
</g>
		<g transform="matrix(12.5 0 0 12.5 11.875 -1.25)">
<path style="stroke: none; stroke-width: 1; stroke-dasharray: none; stroke-linecap: butt; stroke-dashoffset: 0; stroke-linejoin: miter; stroke-miterlimit: 4; is-custom-font: none; font-file-url: none; fill: rgb(53,84,209); fill-rule: nonzero; opacity: 1;" transform=" translate(-32.95, -31.9)" d="M 39.6 18.2 c 1.1 0.5 2 1.1 2.7 2 c 0.6 0.7 1.1 1.5 1.5 2.4 c 0.4 0.9 0.5 1.9 0.5 3.1 c 0 1.4 -0.3 2.7 -1 4.1 s -1.8 2.3 -3.4 2.8 c 1.3 0.5 2.3 1.3 2.8 2.3 c 0.6 1 0.8 2.5 0.8 4.5 v 1.9 c 0 1.3 0.1 2.2 0.2 2.7 c 0.2 0.7 0.5 1.3 1.1 1.7 v 0.7 h -6.7 c -0.2 -0.6 -0.3 -1.2 -0.4 -1.6 c -0.2 -0.8 -0.2 -1.6 -0.3 -2.5 v -2.7 c 0 -1.8 -0.3 -3.1 -1 -3.7 c -0.6 -0.6 -1.8 -0.9 -3.5 -0.9 H 27 v 11.4 h -5.9 v -29 H 35 c 2 0.1 3.6 0.4 4.6 0.8 m -12.5 4.3 v 7.8 h 6.5 c 1.3 0 2.3 -0.2 2.9 -0.5 c 1.1 -0.6 1.7 -1.6 1.7 -3.3 c 0 -1.8 -0.6 -2.9 -1.7 -3.5 c -0.6 -0.3 -1.6 -0.5 -2.8 -0.5 h -6.6" stroke-linecap="round"/>
</g>
</g>
</g>
<g transform="matrix(1 0 0 1 672.4007 499.5)" style="" id="624136">
		
<path xml:space="preserve" font-family="Aladin" font-size="144" font-style="normal" font-weight="normal" style="stroke: none; stroke-width: 0; stroke-dasharray: none; stroke-linecap: butt; stroke-dashoffset: 0; stroke-linejoin: miter; stroke-miterlimit: 4; is-custom-font: none; font-file-url: none; fill: rgb(255,255,255); fill-rule: nonzero; opacity: 1; white-space: pre;" d="M-191.74-9.77L-193.90-9.34Q-195.48-8.91-195.48-8.40Q-195.48-7.90-192.02-6.60Q-188.57-5.31-185.47-2.57Q-182.38 0.16-181.08 4.05L-181.08 4.05Q-179.06 9.96-179.06 16.72Q-179.06 23.49-178.06 27.88Q-177.05 32.28-175.61 34.58L-175.61 34.58Q-172.73 39.48-170.28 40.63L-170.28 40.63L-169.27 41.20Q-168.41 41.78-168.41 42.64L-168.41 42.64Q-168.41 44.80-175.46 46.46Q-182.52 48.12-186.41 48.12L-186.41 48.12Q-194.04 48.12-196.13 42.00Q-198.22 35.88-198.22 21.04L-198.22 21.04L-198.22 13.12Q-198.22 0.60-205.70-2.86L-205.70-2.86Q-208.58-4.16-212.62-4.16L-212.62-4.16L-212.76-4.16Q-214.06-4.16-214.06-6.68Q-214.06-9.20-212.54-11.79Q-211.03-14.38-209.88-14.38L-209.88-14.38Q-205.13-14.38-201.67-16.18Q-198.22-17.98-196.63-20.57L-196.63-20.57Q-193.32-26.04-193.03-29.93L-193.03-29.93L-193.03-31.80Q-193.03-37.13-194.76-40.80Q-196.49-44.48-199.08-45.92L-199.08-45.92Q-203.40-48.22-207.86-48.22Q-212.33-48.22-215.21-47.50L-215.21-47.50Q-219.24-46.35-219.24-45.05L-219.24-45.05Q-220.54-26.19-220.54-8.69Q-220.54 8.80-220.03 18.09Q-219.53 27.38-219.02 33.07Q-218.52 38.76-218.52 39.76L-218.52 39.76Q-218.52 41.64-219.53 42.36L-219.53 42.36Q-225.43 47.83-238.10 47.83L-238.10 47.83Q-240.26 47.83-240.26 46.39L-240.26 46.39Q-240.26 45.96-239.83 44.37L-239.83 44.37Q-238.39 41.06-237.74 23.35Q-237.10 5.64-237.10-8.98Q-237.10-23.60-237.67-32.67L-237.67-32.67Q-238.54-46.35-240.55-49.08L-240.55-49.08Q-242.14-51.10-242.14-51.89Q-242.14-52.68-240.55-53.55L-240.55-53.55Q-231.34-57.87-207.14-57.87L-207.14-57.87Q-187.70-57.87-178.06-46.92L-178.06-46.92Q-172.87-40.88-172.87-31.80L-172.87-31.80Q-172.87-26.33-175.03-22.01Q-177.19-17.69-180.36-15.39L-180.36-15.39Q-186.41-10.78-191.74-9.77L-191.74-9.77ZM-151.85-9.05L-151.85-9.05Q-155.59-8.91-157.25-8.84Q-158.90-8.76-158.90-9.63Q-158.90-10.49-158.04-11.36L-158.04-11.36Q-148.82-19.85-126.94-19.85L-126.94-19.85Q-119.45-19.85-115.13-18.56L-115.13-18.56L-113.69-18.12Q-111.96-17.40-111.96-16.54L-111.96-16.54Q-111.96-15.82-112.97-15.39L-112.97-15.39Q-116.86-14.24-120.46-11.72Q-124.06-9.20-124.06-8.19L-124.06-8.19L-123.19-7.18Q-118.58-4.59-116.06 1.03Q-113.54 6.64-113.26 10.96L-113.26 10.96L-112.97 15.43Q-112.97 29.68-120.89 38.90Q-128.81 48.12-142.49 48.12L-142.49 48.12Q-149.40 48.12-154.44 45.67Q-159.48 43.22-161.86 40.12Q-164.23 37.03-165.67 33.14L-165.67 33.14Q-167.40 27.81-167.40 22.12Q-167.40 16.44-165.46 10.68Q-163.51 4.92-160.99 2.18Q-158.47-0.56-155.30-2.28L-155.30-2.28Q-151.27-4.44-148.82-4.44Q-146.38-4.44-146.38-3.44L-146.38-3.44L-147.24-2.00Q-150.41 1.75-151.78 7.80Q-153.14 13.84-153.14 18.52Q-153.14 23.20-151.99 27.81Q-150.84 32.42-149.40 34.65Q-147.96 36.88-146.09 38.04L-146.09 38.04Q-143.35 39.76-140.33 39.76Q-137.30 39.76-134.42 37.39Q-131.54 35.01-130.25 31.12L-130.25 31.12Q-127.66 23.92-127.66 16.29L-127.66 16.29Q-127.66 4.20-133.78-2.43Q-139.90-9.05-151.85-9.05ZM-79.99 85.12L-79.99 85.12Q-79.99 86.85-81.72 86.85L-81.72 86.85L-81.86 86.85Q-86.62 86.85-92.59 83.54Q-98.57 80.23-98.57 75.91Q-98.57 71.59-93.10 60.86Q-87.62 50.13-87.62 46.53L-87.62 46.53Q-87.62 42.64-91.37 32.56L-91.37 32.56Q-96.12 19.46-98.93 11.25Q-101.74 3.04-104.98-3.22Q-108.22-9.48-109.66-10.64L-109.66-10.64L-111.10-11.64Q-112.68-12.51-112.68-13.52L-112.68-13.52Q-112.68-15.53-106.42-17.62Q-100.15-19.71-95.40-19.71L-95.40-19.71Q-93.24-19.71-91.80-16.25L-91.80-16.25Q-89.21-9.48-86.18 2.47L-86.18 2.47Q-78.84 26.95-76.97 26.95L-76.97 26.95Q-75.67 26.95-71.71 16.87Q-67.75 6.79-67.75 0.60L-67.75 0.60Q-67.75-10.20-74.09-12.08L-74.09-12.08Q-75.53-12.36-75.53-13.52L-75.53-13.52Q-75.53-16.11-68.76-18.48Q-61.99-20.86-56.52-20.86L-56.52-20.86Q-51.77-20.86-51.77-14.67L-51.77-14.67Q-51.77-9.92-53.78-3.58Q-55.80 2.76-57.53 6.43Q-59.26 10.10-66.10 23.42Q-72.94 36.74-77.40 46.82L-77.40 46.82Q-82.30 58.92-82.30 71.44L-82.30 71.44Q-82.30 78.07-81.14 81.38Q-79.99 84.69-79.99 85.12ZM-1.37 2.04L-1.37 2.04L-1.66 20.47Q-1.66 39.62 2.52 43.51L2.52 43.51Q3.10 44.08 3.10 44.80L3.10 44.80Q3.10 46.96-6.19 46.96Q-15.48 46.96-16.06 41.49L-16.06 41.49Q-16.20 40.20-16.20 36.16L-16.20 36.16L-15.62 13.12Q-15.62 12.12-16.78 12.12L-16.78 12.12Q-23.69 12.12-29.74 16.00Q-35.78 19.89-35.78 25.94L-35.78 25.94Q-35.78 29.11-34.06 31.27Q-32.33 33.43-29.81 33.43Q-27.29 33.43-25.63 32.42Q-23.98 31.41-23.69 31.27L-23.69 31.27Q-21.24 31.56-21.24 36.38Q-21.24 41.20-25.70 44.16Q-30.17 47.11-35.06 47.11Q-39.96 47.11-43.49 45.38Q-47.02 43.65-48.60 41.49Q-50.18 39.33-51.19 36.60L-51.19 36.60Q-52.20 33.28-52.20 30.84L-52.20 30.84Q-52.20 20.76-45.86 14.71Q-39.53 8.66-29.59 6.07L-29.59 6.07Q-16.49 3.48-15.91 1.32L-15.91 1.32Q-15.48-0.27-15.48-4.01L-15.48-4.01Q-15.48-11.64-23.26-11.64L-23.26-11.64Q-26.57-11.64-29.16-9.56Q-31.75-7.47-31.75-4.30L-31.75-4.30L-30.89-0.84Q-31.18 1.60-36.07 2.04L-36.07 2.04L-37.66 2.18Q-41.98 2.18-44.50 0.02Q-47.02-2.14-47.02-5.74L-47.02-5.74Q-47.02-8.04-45.50-10.85Q-43.99-13.66-41.69-15.39Q-39.38-17.12-34.56-18.48Q-29.74-19.85-25.27-19.85Q-20.81-19.85-18.36-19.56Q-15.91-19.28-11.66-18.20Q-7.42-17.12-4.61-14.09Q-1.80-11.07-1.58-7.68Q-1.37-4.30-1.37 2.04ZM25.42-37.13L25.42-37.13L24.55 15.72Q24.55 40.48 26.14 45.38L26.14 45.38Q26.57 46.24 26.57 47.11L26.57 47.11Q26.57 48.84 22.39 48.84Q18.22 48.84 13.10 46.75Q7.99 44.66 7.99 41.35L7.99 41.35Q10.87 21.19 10.87-12.51L10.87-12.51L10.30-34.54Q10.01-38.57 8.64-41.45Q7.27-44.33 5.98-45.20L5.98-45.20L4.82-45.92Q3.82-46.49 3.82-47.21L3.82-47.21Q3.82-49.23 10.08-52.18Q16.34-55.13 22.25-55.13L22.25-55.13Q24.55-55.13 24.84-53.55L24.84-53.55Q25.42-49.80 25.42-37.13ZM46.44-57.29L46.44-57.29L67.18-56.14Q81.00-56.14 87.05-59.45L87.05-59.45Q87.91-60.03 88.56-60.03Q89.21-60.03 89.21-58.01Q89.21-56.00 86.76-51.39L86.76-51.39Q83.16-44.33 76.39-44.33L76.39-44.33L68.47-44.48Q67.32-44.48 67.03-43.18L67.03-43.18Q66.02-22.01 66.02 2.54Q66.02 27.09 68.04 39.48L68.04 39.48L68.04 40.20Q68.04 43.80 61.20 45.96Q54.36 48.12 48.31 48.12L48.31 48.12Q45.43 48.12 45.43 46.53L45.43 46.53Q45.43 46.10 45.86 44.52L45.86 44.52Q47.45 41.35 48.67 13.84Q49.90-13.66 49.90-27.63L49.90-27.63L49.61-43.32Q49.61-44.19 48.74-44.33L48.74-44.33Q45.72-44.91 41.83-44.91L41.83-44.91Q34.06-44.91 30.31-41.74L30.31-41.74Q29.30-41.02 28.37-41.02Q27.43-41.02 27.43-42.17L27.43-42.17Q27.43-43.90 29.23-46.92Q31.03-49.95 33.05-52.11L33.05-52.11Q37.94-57.29 46.44-57.29ZM95.26-9.05L95.26-9.05Q91.51-8.91 89.86-8.84Q88.20-8.76 88.20-9.63Q88.20-10.49 89.06-11.36L89.06-11.36Q98.28-19.85 120.17-19.85L120.17-19.85Q127.66-19.85 131.98-18.56L131.98-18.56L133.42-18.12Q135.14-17.40 135.14-16.54L135.14-16.54Q135.14-15.82 134.14-15.39L134.14-15.39Q130.25-14.24 126.65-11.72Q123.05-9.20 123.05-8.19L123.05-8.19L123.91-7.18Q128.52-4.59 131.04 1.03Q133.56 6.64 133.85 10.96L133.85 10.96L134.14 15.43Q134.14 29.68 126.22 38.90Q118.30 48.12 104.62 48.12L104.62 48.12Q97.70 48.12 92.66 45.67Q87.62 43.22 85.25 40.12Q82.87 37.03 81.43 33.14L81.43 33.14Q79.70 27.81 79.70 22.12Q79.70 16.44 81.65 10.68Q83.59 4.92 86.11 2.18Q88.63-0.56 91.80-2.28L91.80-2.28Q95.83-4.44 98.28-4.44Q100.73-4.44 100.73-3.44L100.73-3.44L99.86-2.00Q96.70 1.75 95.33 7.80Q93.96 13.84 93.96 18.52Q93.96 23.20 95.11 27.81Q96.26 32.42 97.70 34.65Q99.14 36.88 101.02 38.04L101.02 38.04Q103.75 39.76 106.78 39.76Q109.80 39.76 112.68 37.39Q115.56 35.01 116.86 31.12L116.86 31.12Q119.45 23.92 119.45 16.29L119.45 16.29Q119.45 4.20 113.33-2.43Q107.21-9.05 95.26-9.05ZM192.60-18.84L192.60-18.84Q190.01-3.29 190.01 20.76L190.01 20.76Q190.01 38.47 191.45 44.08L191.45 44.08L192.02 45.96Q192.02 47.83 188.86 47.83L188.86 47.83Q177.77 47.83 176.18 41.64L176.18 41.64Q176.04 40.92 175.54 40.92Q175.03 40.92 174.60 41.49L174.60 41.49Q170.14 47.40 160.78 47.40L160.78 47.40Q155.59 47.40 149.98 44.80L149.98 44.80Q146.52 43.22 144.36 39.26Q142.20 35.30 142.20 29.54L142.20 29.54L144.36-2.00Q144.36-11.93 142.34-16.11L142.34-16.11Q141.62-17.69 141.62-18.12L141.62-18.12Q141.62-18.99 142.34-19.28L142.34-19.28Q144.65-20.00 148.25-20.00L148.25-20.00Q162.22-20.00 162.22-8.48L162.22-8.48Q162.22-4.88 159.26 7.94Q156.31 20.76 156.31 26.16Q156.31 31.56 158.69 34.44Q161.06 37.32 165.31 37.32Q169.56 37.32 172.01 34.29Q174.46 31.27 174.89 28.24L174.89 28.24L175.32 25.22Q175.90 20.18 175.90 7.51Q175.90-5.16 175.10-8.55Q174.31-11.93 174.31-12.80L174.31-12.80Q174.31-16.40 180.07-18.48Q185.83-20.57 190.44-20.57L190.44-20.57Q192.60-20.57 192.60-18.84ZM244.15-4.30L243.43 6.64L244.01 11.68Q244.01 14.42 238.82 14.42L238.82 14.42Q228.31 14.42 228.31 6.50L228.31 6.50Q228.31 4.63 229.32 1.32Q230.33-2.00 230.33-4.44Q230.33-6.89 228.89-8.69Q227.45-10.49 224.71-10.49Q221.98-10.49 220.03-8.55Q218.09-6.60 217.66-4.59L217.66-4.59L217.08-2.57Q216.22 1.89 216.22 12.33Q216.22 22.77 216.50 28.75Q216.79 34.72 217.08 36.96Q217.37 39.19 217.37 39.62L217.37 39.62Q217.37 43.22 212.90 45.45Q208.44 47.68 203.98 47.68Q199.51 47.68 199.51 45.81L199.51 45.81L200.23 41.35Q202.25 28.82 202.25 8.66Q202.25-11.50 200.81-18.70L200.81-18.70Q200.81-20.43 203.83-20.43L203.83-20.43Q211.61-20.43 214.20-15.10L214.20-15.10Q214.34-14.52 214.70-14.52Q215.06-14.52 216.65-15.82L216.65-15.82Q221.40-19.71 227.88-19.71L227.88-19.71Q231.91-19.71 235.94-18.12L235.94-18.12Q244.15-14.81 244.15-4.30L244.15-4.30Z"/></g>
</svg>