<?xml version="1.0" standalone="no"?>
<!DOCTYPE svg PUBLIC "-//W3C//DTD SVG 20010904//EN"
 "http://www.w3.org/TR/2001/REC-SVG-20010904/DTD/svg10.dtd">
<svg version="1.0" xmlns="http://www.w3.org/2000/svg"
 width="96.000000pt" height="96.000000pt" viewBox="0 0 96.000000 96.000000"
 preserveAspectRatio="xMidYMid meet">

<g transform="translate(0.000000,96.000000) scale(0.100000,-0.100000)"
fill="#000000" stroke="none">
<path d="M383 865 c-159 -43 -265 -159 -295 -325 -48 -257 197 -499 458 -451
172 31 294 154 326 331 22 115 -23 252 -110 339 -103 103 -244 142 -379 106z
m180 -179 c52 -22 72 -51 72 -108 0 -47 -3 -53 -42 -88 -39 -34 -41 -39 -26
-51 26 -22 113 -160 107 -170 -3 -5 -26 -9 -52 -9 -47 0 -48 1 -82 57 -48 79
-78 113 -100 113 -17 0 -20 -10 -22 -82 l-3 -83 -45 0 -45 0 -3 205 c-1 112 0
210 2 217 7 18 196 18 239 -1z"/>
<path d="M420 559 l0 -62 36 6 c46 8 74 33 74 67 0 37 -17 50 -67 50 l-43 0 0
-61z"/>
</g>
</svg>
