<svg xmlns="http://www.w3.org/2000/svg" xmlns:xlink="http://www.w3.org/1999/xlink" version="1.1" width="1000" height="1000" viewBox="0 0 1000 1000" xml:space="preserve">
<desc>Created with Fabric.js 3.5.0</desc>
<defs>
</defs>
<rect x="0" y="0" width="100%" height="100%" fill="#ffffff"/>
<g transform="matrix(24.6233 0 0 24.6233 500.0005 500.0006)" id="852816" clip-path="url(#CLIPPATH_4)">
<clipPath id="CLIPPATH_4">
	<rect transform="matrix(1 0 0 1 -0.0252 0)" id="clip0_1_41" x="-18.46" y="-18.46" rx="0" ry="0" width="36.92" height="36.92"/>
</clipPath>
<path style="stroke: none; stroke-width: 1; stroke-dasharray: none; stroke-linecap: butt; stroke-dashoffset: 0; stroke-linejoin: miter; stroke-miterlimit: 4; is-custom-font: none; font-file-url: none; fill: rgb(255,255,255); fill-rule: nonzero; opacity: 1;" vector-effect="non-scaling-stroke" transform=" translate(-19.0252, -18.46)" d="M 32.9675 13.9422 C 32.9675 6.25436 26.7129 0 19.0251 0 C 11.3372 0 5.08289 6.25436 5.08289 13.9422 C 5.08289 17.1322 7.32025 21.6568 11.7327 27.3906 C 13.0538 29.1071 14.3656 30.6662 15.4621 31.9166 V 35.8212 C 15.4621 36.4279 15.9539 36.92 16.561 36.92 H 21.4895 C 22.0965 36.92 22.5883 36.4279 22.5883 35.8212 V 31.9166 C 23.6849 30.6662 24.9966 29.1071 26.3177 27.3906 C 30.7302 21.6568 32.9675 17.1322 32.9675 13.9422 V 13.9422 Z M 30.7699 13.9422 C 30.7699 16.9956 27.9286 21.6204 24.8175 25.7245 H 23.4375 C 25.1039 20.7174 25.9484 16.7575 25.9484 13.9422 C 25.9484 10.3587 25.3079 6.97207 24.1445 4.40684 C 23.9229 3.91841 23.6857 3.46886 23.4347 3.05761 C 27.732 4.80457 30.7699 9.02494 30.7699 13.9422 Z M 20.3906 34.7224 H 17.6598 V 32.5991 H 20.3906 V 34.7224 Z M 21.0007 30.4014 H 17.0587 C 16.4167 29.6679 15.7024 28.8305 14.9602 27.9224 H 16.1398 C 16.1429 27.9224 16.146 27.9227 16.1489 27.9227 C 16.152 27.9227 23.0902 27.9224 23.0902 27.9224 C 22.3725 28.8049 21.6658 29.6398 21.0007 30.4014 Z M 19.0251 2.19765 C 20.1084 2.19765 21.2447 3.33365 22.1429 5.3144 C 23.1798 7.60078 23.7508 10.6649 23.7508 13.9422 C 23.7508 16.6099 22.8415 20.6748 21.1185 25.7245 H 16.9322 C 15.2086 20.6743 14.2994 16.6108 14.2994 13.9422 C 14.2994 10.6649 14.8706 7.60078 15.9075 5.3144 C 16.8057 3.33365 17.942 2.19765 19.0251 2.19765 V 2.19765 Z M 7.28053 13.9422 C 7.28053 9.02494 10.3184 4.80457 14.6157 3.05761 C 14.3647 3.46886 14.1273 3.91841 13.9059 4.40684 C 12.7425 6.97207 12.102 10.3587 12.102 13.9422 C 12.102 16.7584 12.9462 20.7176 14.6126 25.7245 H 13.2259 C 9.33565 20.6126 7.28053 16.5429 7.28053 13.9422 Z" stroke-linecap="round"/>
</g>
<g transform="matrix(0.8656 0 0 1.1276 500.6618 495.938)" id="281272">
<g style="" vector-effect="non-scaling-stroke">
		<g transform="matrix(12.5 0 0 12.5 0 0)">
<circle style="stroke: none; stroke-width: 1; stroke-dasharray: none; stroke-linecap: butt; stroke-dashoffset: 0; stroke-linejoin: miter; stroke-miterlimit: 4; is-custom-font: none; font-file-url: none; fill: rgb(255,255,255); fill-rule: nonzero; opacity: 1;" cx="0" cy="0" r="30"/>
</g>
		<g transform="matrix(12.5 0 0 12.5 11.875 -1.25)">
<path style="stroke: none; stroke-width: 1; stroke-dasharray: none; stroke-linecap: butt; stroke-dashoffset: 0; stroke-linejoin: miter; stroke-miterlimit: 4; is-custom-font: none; font-file-url: none; fill: rgb(53,84,209); fill-rule: nonzero; opacity: 1;" transform=" translate(-32.95, -31.9)" d="M 39.6 18.2 c 1.1 0.5 2 1.1 2.7 2 c 0.6 0.7 1.1 1.5 1.5 2.4 c 0.4 0.9 0.5 1.9 0.5 3.1 c 0 1.4 -0.3 2.7 -1 4.1 s -1.8 2.3 -3.4 2.8 c 1.3 0.5 2.3 1.3 2.8 2.3 c 0.6 1 0.8 2.5 0.8 4.5 v 1.9 c 0 1.3 0.1 2.2 0.2 2.7 c 0.2 0.7 0.5 1.3 1.1 1.7 v 0.7 h -6.7 c -0.2 -0.6 -0.3 -1.2 -0.4 -1.6 c -0.2 -0.8 -0.2 -1.6 -0.3 -2.5 v -2.7 c 0 -1.8 -0.3 -3.1 -1 -3.7 c -0.6 -0.6 -1.8 -0.9 -3.5 -0.9 H 27 v 11.4 h -5.9 v -29 H 35 c 2 0.1 3.6 0.4 4.6 0.8 m -12.5 4.3 v 7.8 h 6.5 c 1.3 0 2.3 -0.2 2.9 -0.5 c 1.1 -0.6 1.7 -1.6 1.7 -3.3 c 0 -1.8 -0.6 -2.9 -1.7 -3.5 c -0.6 -0.3 -1.6 -0.5 -2.8 -0.5 h -6.6" stroke-linecap="round"/>
</g>
</g>
</g>
</svg>