<svg xmlns="http://www.w3.org/2000/svg" xmlns:xlink="http://www.w3.org/1999/xlink" version="1.1" width="10000" height="1000" viewBox="0 0 1000 1000" xml:space="preserve">
<desc>Created with Fabric.js 3.5.0</desc>
<defs>
</defs>
<rect x="0" y="0" width="100%" height="100%" fill="rgba(255,255,255,0)"/>
<g transform="matrix(0.4211 0 0 0.3964 199.0114 501.4171)" id="103526">
<g style="" vector-effect="non-scaling-stroke">
		<g transform="matrix(12.5 0 0 12.5 0 0)">
<circle style="stroke: none; stroke-width: 1; stroke-dasharray: none; stroke-linecap: butt; stroke-dashoffset: 0; stroke-linejoin: miter; stroke-miterlimit: 4; is-custom-font: none; font-file-url: none; fill: rgb(255,255,255); fill-rule: nonzero; opacity: 1;" cx="0" cy="0" r="30"/>
</g>
		<g transform="matrix(12.5 0 0 12.5 11.875 -1.25)">
<path style="stroke: none; stroke-width: 1; stroke-dasharray: none; stroke-linecap: butt; stroke-dashoffset: 0; stroke-linejoin: miter; stroke-miterlimit: 4; is-custom-font: none; font-file-url: none; fill: rgb(53,84,209); fill-rule: nonzero; opacity: 1;" transform=" translate(-32.95, -31.9)" d="M 39.6 18.2 c 1.1 0.5 2 1.1 2.7 2 c 0.6 0.7 1.1 1.5 1.5 2.4 c 0.4 0.9 0.5 1.9 0.5 3.1 c 0 1.4 -0.3 2.7 -1 4.1 s -1.8 2.3 -3.4 2.8 c 1.3 0.5 2.3 1.3 2.8 2.3 c 0.6 1 0.8 2.5 0.8 4.5 v 1.9 c 0 1.3 0.1 2.2 0.2 2.7 c 0.2 0.7 0.5 1.3 1.1 1.7 v 0.7 h -6.7 c -0.2 -0.6 -0.3 -1.2 -0.4 -1.6 c -0.2 -0.8 -0.2 -1.6 -0.3 -2.5 v -2.7 c 0 -1.8 -0.3 -3.1 -1 -3.7 c -0.6 -0.6 -1.8 -0.9 -3.5 -0.9 H 27 v 11.4 h -5.9 v -29 H 35 c 2 0.1 3.6 0.4 4.6 0.8 m -12.5 4.3 v 7.8 h 6.5 c 1.3 0 2.3 -0.2 2.9 -0.5 c 1.1 -0.6 1.7 -1.6 1.7 -3.3 c 0 -1.8 -0.6 -2.9 -1.7 -3.5 c -0.6 -0.3 -1.6 -0.5 -2.8 -0.5 h -6.6" stroke-linecap="round"/>
</g>
</g>
</g>
<g transform="matrix(1 0 0 1 694.4007 505.715)" style="" id="624136">
		
<path xml:space="preserve" font-family="Aladin" font-size="155" font-style="normal" font-weight="normal" style="stroke: none; stroke-width: 0; stroke-dasharray: none; stroke-linecap: butt; stroke-dashoffset: 0; stroke-linejoin: miter; stroke-miterlimit: 4; is-custom-font: none; font-file-url: none; fill: rgb(255,255,255); fill-rule: nonzero; opacity: 1; white-space: pre;" d="M-206.38-10.52L-208.71-10.05Q-210.41-9.59-210.41-9.05Q-210.41-8.50-206.69-7.11Q-202.97-5.71-199.64-2.77Q-196.31 0.18-194.91 4.36L-194.91 4.36Q-192.74 10.72-192.74 18.00Q-192.74 25.29-191.66 30.01Q-190.57 34.74-189.02 37.22L-189.02 37.22Q-185.92 42.49-183.29 43.73L-183.29 43.73L-182.20 44.35Q-181.27 44.97-181.27 45.90L-181.27 45.90Q-181.27 48.23-188.87 50.01Q-196.46 51.79-200.65 51.79L-200.65 51.79Q-208.86 51.79-211.11 45.20Q-213.36 38.62-213.36 22.65L-213.36 22.65L-213.36 14.13Q-213.36 0.64-221.42-3.08L-221.42-3.08Q-224.52-4.47-228.86-4.47L-228.86-4.47L-229.01-4.47Q-230.41-4.47-230.41-7.19Q-230.41-9.90-228.78-12.69Q-227.15-15.48-225.91-15.48L-225.91-15.48Q-220.80-15.48-217.08-17.42Q-213.36-19.35-211.65-22.14L-211.65-22.14Q-208.09-28.03-207.78-32.22L-207.78-32.22L-207.78-34.23Q-207.78-39.97-209.64-43.92Q-211.50-47.87-214.29-49.42L-214.29-49.42Q-218.94-51.90-223.74-51.90Q-228.55-51.90-231.65-51.13L-231.65-51.13Q-235.99-49.89-235.99-48.49L-235.99-48.49Q-237.38-28.19-237.38-9.36Q-237.38 9.48-236.84 19.47Q-236.30 29.47-235.75 35.59Q-235.21 41.72-235.21 42.80L-235.21 42.80Q-235.21 44.82-236.30 45.59L-236.30 45.59Q-242.65 51.48-256.29 51.48L-256.29 51.48Q-258.62 51.48-258.62 49.93L-258.62 49.93Q-258.62 49.47-258.15 47.76L-258.15 47.76Q-256.60 44.20-255.91 25.13Q-255.21 6.07-255.21-9.67Q-255.21-25.40-255.83-35.16L-255.83-35.16Q-256.76-49.89-258.93-52.83L-258.93-52.83Q-260.63-55.00-260.63-55.86Q-260.63-56.71-258.93-57.64L-258.93-57.64Q-249.01-62.29-222.97-62.29L-222.97-62.29Q-202.04-62.29-191.66-50.51L-191.66-50.51Q-186.08-44.00-186.08-34.23L-186.08-34.23Q-186.08-28.34-188.40-23.69Q-190.73-19.04-194.14-16.56L-194.14-16.56Q-200.65-11.60-206.38-10.52L-206.38-10.52ZM-163.45-9.74L-163.45-9.74Q-167.48-9.59-169.26-9.51Q-171.04-9.43-171.04-10.36Q-171.04-11.29-170.11-12.22L-170.11-12.22Q-160.19-21.37-136.63-21.37L-136.63-21.37Q-128.57-21.37-123.92-19.97L-123.92-19.97L-122.37-19.51Q-120.51-18.73-120.51-17.80L-120.51-17.80Q-120.51-17.03-121.60-16.56L-121.60-16.56Q-125.78-15.32-129.66-12.61Q-133.53-9.90-133.53-8.81L-133.53-8.81L-132.60-7.73Q-127.64-4.94-124.93 1.11Q-122.22 7.15-121.91 11.80L-121.91 11.80L-121.60 16.61Q-121.60 31.95-130.12 41.87Q-138.65 51.79-153.37 51.79L-153.37 51.79Q-160.81 51.79-166.24 49.16Q-171.66 46.52-174.22 43.19Q-176.78 39.86-178.33 35.67L-178.33 35.67Q-180.19 29.94-180.19 23.81Q-180.19 17.69-178.09 11.49Q-176.00 5.29-173.29 2.35Q-170.58-0.60-167.17-2.46L-167.17-2.46Q-162.83-4.78-160.19-4.78Q-157.56-4.78-157.56-3.70L-157.56-3.70L-158.49-2.15Q-161.90 1.88-163.37 8.39Q-164.84 14.90-164.84 19.94Q-164.84 24.98-163.60 29.94Q-162.36 34.90-160.81 37.30Q-159.26 39.70-157.25 40.94L-157.25 40.94Q-154.30 42.80-151.05 42.80Q-147.79 42.80-144.69 40.24Q-141.59 37.69-140.20 33.50L-140.20 33.50Q-137.41 25.75-137.41 17.54L-137.41 17.54Q-137.41 4.52-144.00-2.61Q-150.58-9.74-163.45-9.74ZM-86.10 91.63L-86.10 91.63Q-86.10 93.49-87.96 93.49L-87.96 93.49L-88.12 93.49Q-93.23 93.49-99.66 89.92Q-106.10 86.36-106.10 81.71Q-106.10 77.06-100.21 65.51Q-94.32 53.96-94.32 50.09L-94.32 50.09Q-94.32 45.90-98.35 35.05L-98.35 35.05Q-103.46 20.95-106.48 12.11Q-109.51 3.28-113.00-3.47Q-116.48-10.21-118.03-11.45L-118.03-11.45L-119.58-12.53Q-121.29-13.46-121.29-14.55L-121.29-14.55Q-121.29-16.72-114.55-18.97Q-107.80-21.21-102.69-21.21L-102.69-21.21Q-100.36-21.21-98.81-17.49L-98.81-17.49Q-96.02-10.21-92.77 2.66L-92.77 2.66Q-84.86 29.01-82.85 29.01L-82.85 29.01Q-81.45 29.01-77.19 18.16Q-72.93 7.31-72.93 0.64L-72.93 0.64Q-72.93-10.98-79.75-13.00L-79.75-13.00Q-81.30-13.31-81.30-14.55L-81.30-14.55Q-81.30-17.34-74.01-19.90Q-66.73-22.45-60.84-22.45L-60.84-22.45Q-55.72-22.45-55.72-15.79L-55.72-15.79Q-55.72-10.67-57.89-3.85Q-60.06 2.97-61.92 6.92Q-63.78 10.87-71.15 25.21Q-78.51 39.55-83.31 50.40L-83.31 50.40Q-88.58 63.42-88.58 76.90L-88.58 76.90Q-88.58 84.03-87.34 87.60Q-86.10 91.16-86.10 91.63ZM-1.47 2.19L-1.47 2.19L-1.78 22.03Q-1.78 42.65 2.71 46.83L2.71 46.83Q3.33 47.45 3.33 48.23L3.33 48.23Q3.33 50.55-6.66 50.55Q-16.66 50.55-17.28 44.66L-17.28 44.66Q-17.44 43.27-17.44 38.93L-17.44 38.93L-16.82 14.13Q-16.82 13.04-18.06 13.04L-18.06 13.04Q-25.50 13.04-32.01 17.23Q-38.52 21.41-38.52 27.92L-38.52 27.92Q-38.52 31.33-36.66 33.66Q-34.80 35.98-32.08 35.98Q-29.37 35.98-27.59 34.90Q-25.81 33.81-25.50 33.66L-25.50 33.66Q-22.86 33.97-22.86 39.16Q-22.86 44.35-27.67 47.53Q-32.47 50.71-37.74 50.71Q-43.01 50.71-46.81 48.85Q-50.61 46.99-52.31 44.66Q-54.02 42.34-55.10 39.39L-55.10 39.39Q-56.19 35.83-56.19 33.19L-56.19 33.19Q-56.19 22.34-49.37 15.83Q-42.55 9.32-31.85 6.53L-31.85 6.53Q-17.75 3.74-17.13 1.42L-17.13 1.42Q-16.66-0.29-16.66-4.32L-16.66-4.32Q-16.66-12.53-25.03-12.53L-25.03-12.53Q-28.60-12.53-31.39-10.29Q-34.18-8.04-34.18-4.63L-34.18-4.63L-33.25-0.91Q-33.56 1.73-38.83 2.19L-38.83 2.19L-40.53 2.35Q-45.18 2.35-47.89 0.02Q-50.61-2.30-50.61-6.18L-50.61-6.18Q-50.61-8.66-48.98-11.68Q-47.35-14.70-44.87-16.56Q-42.39-18.42-37.20-19.90Q-32.01-21.37-27.20-21.37Q-22.40-21.37-19.76-21.06Q-17.13-20.75-12.55-19.59Q-7.98-18.42-4.96-15.17Q-1.94-11.91-1.70-8.27Q-1.47-4.63-1.47 2.19ZM27.36-39.97L27.36-39.97L26.43 16.92Q26.43 43.58 28.13 48.85L28.13 48.85Q28.60 49.78 28.60 50.71L28.60 50.71Q28.60 52.57 24.10 52.57Q19.61 52.57 14.11 50.32Q8.60 48.07 8.60 44.51L8.60 44.51Q11.70 22.81 11.70-13.46L11.70-13.46L11.08-37.18Q10.77-41.52 9.30-44.62Q7.83-47.72 6.43-48.65L6.43-48.65L5.19-49.42Q4.11-50.04 4.11-50.82L4.11-50.82Q4.11-52.99 10.85-56.17Q17.59-59.34 23.95-59.34L23.95-59.34Q26.43-59.34 26.74-57.64L26.74-57.64Q27.36-53.61 27.36-39.97ZM49.99-61.67L49.99-61.67L72.31-60.43Q87.19-60.43 93.70-63.99L93.70-63.99Q94.63-64.61 95.33-64.61Q96.02-64.61 96.02-62.44Q96.02-60.27 93.39-55.31L93.39-55.31Q89.51-47.72 82.23-47.72L82.23-47.72L73.70-47.87Q72.46-47.87 72.15-46.48L72.15-46.48Q71.07-23.69 71.07 2.73Q71.07 29.16 73.24 42.49L73.24 42.49L73.24 43.27Q73.24 47.14 65.88 49.47Q58.51 51.79 52.00 51.79L52.00 51.79Q48.90 51.79 48.90 50.09L48.90 50.09Q48.90 49.62 49.37 47.92L49.37 47.92Q51.07 44.51 52.39 14.90Q53.71-14.70 53.71-29.74L53.71-29.74L53.40-46.63Q53.40-47.56 52.47-47.72L52.47-47.72Q49.21-48.34 45.03-48.34L45.03-48.34Q36.66-48.34 32.63-44.93L32.63-44.93Q31.54-44.15 30.54-44.15Q29.53-44.15 29.53-45.39L29.53-45.39Q29.53-47.25 31.47-50.51Q33.40-53.76 35.57-56.09L35.57-56.09Q40.84-61.67 49.99-61.67ZM102.53-9.74L102.53-9.74Q98.50-9.59 96.72-9.51Q94.94-9.43 94.94-10.36Q94.94-11.29 95.87-12.22L95.87-12.22Q105.79-21.37 129.35-21.37L129.35-21.37Q137.41-21.37 142.06-19.97L142.06-19.97L143.61-19.51Q145.47-18.73 145.47-17.80L145.47-17.80Q145.47-17.03 144.38-16.56L144.38-16.56Q140.20-15.32 136.32-12.61Q132.45-9.90 132.45-8.81L132.45-8.81L133.38-7.73Q138.34-4.94 141.05 1.11Q143.76 7.15 144.07 11.80L144.07 11.80L144.38 16.61Q144.38 31.95 135.86 41.87Q127.33 51.79 112.61 51.79L112.61 51.79Q105.17 51.79 99.74 49.16Q94.32 46.52 91.76 43.19Q89.20 39.86 87.65 35.67L87.65 35.67Q85.79 29.94 85.79 23.81Q85.79 17.69 87.88 11.49Q89.98 5.29 92.69 2.35Q95.40-0.60 98.81-2.46L98.81-2.46Q103.15-4.78 105.79-4.78Q108.42-4.78 108.42-3.70L108.42-3.70L107.49-2.15Q104.08 1.88 102.61 8.39Q101.14 14.90 101.14 19.94Q101.14 24.98 102.38 29.94Q103.62 34.90 105.17 37.30Q106.72 39.70 108.73 40.94L108.73 40.94Q111.68 42.80 114.93 42.80Q118.19 42.80 121.29 40.24Q124.39 37.69 125.78 33.50L125.78 33.50Q128.57 25.75 128.57 17.54L128.57 17.54Q128.57 4.52 121.98-2.61Q115.40-9.74 102.53-9.74ZM207.31-20.28L207.31-20.28Q204.52-3.54 204.52 22.34L204.52 22.34Q204.52 41.41 206.07 47.45L206.07 47.45L206.69 49.47Q206.69 51.48 203.28 51.48L203.28 51.48Q191.35 51.48 189.64 44.82L189.64 44.82Q189.49 44.04 188.94 44.04Q188.40 44.04 187.94 44.66L187.94 44.66Q183.13 51.02 173.06 51.02L173.06 51.02Q167.48 51.02 161.43 48.23L161.43 48.23Q157.71 46.52 155.39 42.26Q153.06 38.00 153.06 31.80L153.06 31.80L155.39-2.15Q155.39-12.84 153.22-17.34L153.22-17.34Q152.44-19.04 152.44-19.51L152.44-19.51Q152.44-20.44 153.22-20.75L153.22-20.75Q155.70-21.52 159.57-21.52L159.57-21.52Q174.61-21.52 174.61-9.12L174.61-9.12Q174.61-5.25 171.43 8.55Q168.25 22.34 168.25 28.15Q168.25 33.97 170.81 37.07Q173.37 40.17 177.94 40.17Q182.51 40.17 185.15 36.91Q187.78 33.66 188.25 30.40L188.25 30.40L188.71 27.15Q189.33 21.72 189.33 8.08Q189.33-5.56 188.48-9.20Q187.63-12.84 187.63-13.77L187.63-13.77Q187.63-17.65 193.83-19.90Q200.03-22.14 204.99-22.14L204.99-22.14Q207.31-22.14 207.31-20.28ZM262.80-4.63L262.03 7.15L262.65 12.58Q262.65 15.52 257.07 15.52L257.07 15.52Q245.75 15.52 245.75 7.00L245.75 7.00Q245.75 4.98 246.84 1.42Q247.92-2.15 247.92-4.78Q247.92-7.42 246.37-9.36Q244.82-11.29 241.88-11.29Q238.93-11.29 236.84-9.20Q234.75-7.11 234.28-4.94L234.28-4.94L233.66-2.77Q232.73 2.04 232.73 13.27Q232.73 24.51 233.04 30.94Q233.35 37.38 233.66 39.78Q233.97 42.18 233.97 42.65L233.97 42.65Q233.97 46.52 229.17 48.92Q224.36 51.33 219.56 51.33Q214.75 51.33 214.75 49.31L214.75 49.31L215.53 44.51Q217.70 31.02 217.70 9.32Q217.70-12.38 216.15-20.13L216.15-20.13Q216.15-21.99 219.40-21.99L219.40-21.99Q227.77-21.99 230.56-16.25L230.56-16.25Q230.72-15.63 231.10-15.63Q231.49-15.63 233.20-17.03L233.20-17.03Q238.31-21.21 245.29-21.21L245.29-21.21Q249.63-21.21 253.97-19.51L253.97-19.51Q262.80-15.94 262.80-4.63L262.80-4.63Z"/></g>
</svg>