<svg xmlns="http://www.w3.org/2000/svg" xmlns:xlink="http://www.w3.org/1999/xlink" version="1.1" width="1000" height="1000" viewBox="0 0 1000 1000" xml:space="preserve">
<desc>Created with Fabric.js 3.5.0</desc>
<defs>
</defs>
<rect x="0" y="0" width="100%" height="100%" fill="rgba(255,255,255,0)"/>
<g transform="matrix(0.3975 0 0 0.3975 201.7729 500)" id="312527">
<g style="" vector-effect="non-scaling-stroke">
		<g transform="matrix(12.5 0 0 12.5 0 0)">
<circle style="stroke: rgb(53,84,209); stroke-width: 1; stroke-dasharray: none; stroke-linecap: butt; stroke-dashoffset: 0; stroke-linejoin: miter; stroke-miterlimit: 4; is-custom-font: none; font-file-url: none; fill: rgb(255,255,255); fill-rule: nonzero; opacity: 1;" cx="0" cy="0" r="30"/>
</g>
		<g transform="matrix(12.5 0 0 12.5 11.875 -1.25)">
<path style="stroke: rgb(53,84,209); stroke-width: 1; stroke-dasharray: none; stroke-linecap: butt; stroke-dashoffset: 0; stroke-linejoin: miter; stroke-miterlimit: 4; is-custom-font: none; font-file-url: none; fill: rgb(255,255,255); fill-rule: nonzero; opacity: 1;" transform=" translate(-32.95, -31.9)" d="M 39.6 18.2 c 1.1 0.5 2 1.1 2.7 2 c 0.6 0.7 1.1 1.5 1.5 2.4 c 0.4 0.9 0.5 1.9 0.5 3.1 c 0 1.4 -0.3 2.7 -1 4.1 s -1.8 2.3 -3.4 2.8 c 1.3 0.5 2.3 1.3 2.8 2.3 c 0.6 1 0.8 2.5 0.8 4.5 v 1.9 c 0 1.3 0.1 2.2 0.2 2.7 c 0.2 0.7 0.5 1.3 1.1 1.7 v 0.7 h -6.7 c -0.2 -0.6 -0.3 -1.2 -0.4 -1.6 c -0.2 -0.8 -0.2 -1.6 -0.3 -2.5 v -2.7 c 0 -1.8 -0.3 -3.1 -1 -3.7 c -0.6 -0.6 -1.8 -0.9 -3.5 -0.9 H 27 v 11.4 h -5.9 v -29 H 35 c 2 0.1 3.6 0.4 4.6 0.8 m -12.5 4.3 v 7.8 h 6.5 c 1.3 0 2.3 -0.2 2.9 -0.5 c 1.1 -0.6 1.7 -1.6 1.7 -3.3 c 0 -1.8 -0.6 -2.9 -1.7 -3.5 c -0.6 -0.3 -1.6 -0.5 -2.8 -0.5 h -6.6" stroke-linecap="round"/>
</g>
</g>
</g>
<g transform="matrix(1 0 0 1 695.3162 508.0349)" style="" id="50509">
		
<path xml:space="preserve" font-family="Asap" font-size="130" font-style="normal" font-weight="bold" style="stroke: none; stroke-width: 0; stroke-dasharray: none; stroke-linecap: butt; stroke-dashoffset: 0; stroke-linejoin: miter; stroke-miterlimit: 4; is-custom-font: none; font-file-url: none; fill: rgb(255,255,255); fill-rule: nonzero; opacity: 1; white-space: pre;" d="M-268.23 41.10L-272.65 41.10Q-280.45 41.10-280.45 36.94L-280.45 36.94L-280.45-44.96Q-280.45-50.16-275.25-50.16L-275.25-50.16L-249.90-50.16Q-233.00-50.16-225.26-43.79Q-217.53-37.42-217.53-25.72L-217.53-25.72Q-217.53-18.18-221.75-12.92Q-225.98-7.65-232.74-5.05L-232.74-5.05L-232.74-4.53Q-230.27-3.62-227.67-0.18Q-225.07 3.27-223.38 7.43L-223.38 7.43L-211.94 36.03Q-211.29 37.72-211.29 38.50L-211.29 38.50Q-211.29 41.10-219.09 41.10L-219.09 41.10L-224.42 41.10Q-227.28 41.10-229.29 40.51Q-231.31 39.93-231.96 38.37L-231.96 38.37L-242.23 13.02Q-244.18 9.12-246.58 7.17Q-248.99 5.22-255.36 5.22L-255.36 5.22L-260.43 5.22L-260.43 36.94Q-260.43 41.10-268.23 41.10L-268.23 41.10ZM-260.43-33.13L-260.43-12.07L-248.08-12.07Q-245.35-12.07-243.07-13.57Q-240.80-15.06-239.43-17.60Q-238.07-20.13-238.07-23.25L-238.07-23.25Q-238.07-27.80-240.99-30.47Q-243.92-33.13-248.99-33.13L-248.99-33.13L-260.43-33.13ZM-173.07 41.88L-173.07 41.88Q-188.54 41.88-196.60 32.78Q-204.66 23.68-204.66 6.78L-204.66 6.78Q-204.66-10.25-196.60-19.22Q-188.54-28.19-173.07-28.19L-173.07-28.19Q-157.60-28.19-149.60-19.22Q-141.61-10.25-141.61 6.78L-141.61 6.78Q-141.61 23.68-149.60 32.78Q-157.60 41.88-173.07 41.88ZM-173.07 26.67L-173.07 26.67Q-166.83 26.67-163.97 21.60Q-161.11 16.53-161.11 6.78L-161.11 6.78Q-161.11-2.97-163.97-7.98Q-166.83-12.98-173.07-12.98L-173.07-12.98Q-179.31-12.98-182.23-7.98Q-185.16-2.97-185.16 6.78L-185.16 6.78Q-185.16 16.53-182.23 21.60Q-179.31 26.67-173.07 26.67ZM-112.88 67.62L-115.09 67.62Q-122.89 67.62-122.89 64.89L-122.89 64.89Q-122.89 64.37-122.76 63.78Q-122.63 63.20-122.37 62.55L-122.37 62.55L-111.58 33.82L-111.58 48.12L-135.63-22.21Q-135.76-22.86-135.95-23.45Q-136.15-24.03-136.15-24.55L-136.15-24.55Q-136.15-27.41-128.22-27.41L-128.22-27.41L-124.06-27.41Q-121.20-27.41-119.25-26.83Q-117.30-26.24-116.78-24.68L-116.78-24.68L-109.11-0.63Q-108.46 1.58-107.42 6.26Q-106.38 10.94-105.47 15.10L-105.47 15.10L-104.95 15.10Q-104.04 10.94-103.00 6.19Q-101.96 1.45-101.31-0.63L-101.31-0.63L-93.64-24.68Q-93.12-26.24-91.17-26.83Q-89.22-27.41-86.36-27.41L-86.36-27.41L-83.24-27.41Q-75.44-27.41-75.44-24.55L-75.44-24.55Q-75.44-23.64-75.83-22.21L-75.83-22.21L-105.60 64.89Q-106.12 66.45-108.07 67.03Q-110.02 67.62-112.88 67.62L-112.88 67.62ZM-51.52 41.88L-51.52 41.88Q-62.05 41.88-66.40 36.35Q-70.76 30.83-70.76 22.90L-70.76 22.90Q-70.76 18.87-69.52 14.64Q-68.29 10.42-64.52 6.78Q-60.75 3.14-53.27 0.93Q-45.80-1.28-33.45-1.28L-33.45-1.28L-33.45-5.57Q-33.45-9.34-35.85-11.16Q-38.26-12.98-43.59-12.98L-43.59-12.98Q-48.27-12.98-51.71-11.94Q-55.16-10.90-57.30-9.86Q-59.45-8.82-60.23-8.82L-60.23-8.82Q-61.53-8.82-63.15-10.84Q-64.78-12.85-65.88-15.39Q-66.99-17.92-66.99-19.22L-66.99-19.22Q-66.99-21.43-63.80-23.51Q-60.62-25.59-54.96-26.89Q-49.31-28.19-42.16-28.19L-42.16-28.19Q-31.89-28.19-25.78-25.40Q-19.67-22.60-16.94-17.73Q-14.21-12.85-14.21-6.48L-14.21-6.48L-14.21 17.96Q-14.21 24.72-13.82 28.29Q-13.43 31.87-13.04 33.62Q-12.65 35.38-12.65 36.81L-12.65 36.81Q-12.65 37.98-14.40 38.76Q-16.16 39.54-18.69 40.06Q-21.23 40.58-23.63 40.77Q-26.04 40.97-27.21 40.97L-27.21 40.97Q-29.29 40.97-30.26 39.47Q-31.24 37.98-31.63 35.83Q-32.02 33.69-32.41 32.00L-32.41 32.00Q-32.80 32.78-35.07 35.18Q-37.35 37.59-41.44 39.73Q-45.54 41.88-51.52 41.88ZM-45.15 26.67L-45.15 26.67Q-41.38 26.67-38.19 24.33Q-35.01 21.99-33.45 18.48L-33.45 18.48L-33.45 11.33Q-38.13 11.33-41.51 11.98Q-44.89 12.63-47.16 13.80Q-49.44 14.97-50.54 16.79Q-51.65 18.61-51.65 20.95L-51.65 20.95Q-51.65 23.42-50.02 25.04Q-48.40 26.67-45.15 26.67ZM21.80 41.88L21.80 41.88Q17.25 41.88 13.68 40.64Q10.10 39.41 7.70 36.81Q5.29 34.21 4.06 30.24Q2.82 26.28 2.82 20.82L2.82 20.82L2.82-53.02Q2.82-57.18 10.62-57.18L10.62-57.18L14.26-57.18Q22.06-57.18 22.06-53.02L22.06-53.02L22.06 21.08Q22.06 23.94 23.17 25.30Q24.27 26.67 26.74 26.67L26.74 26.67Q27.65 26.67 28.69 26.41Q29.73 26.15 30.25 26.15L30.25 26.15Q31.55 26.15 32.46 28.29Q33.37 30.44 33.83 32.71Q34.28 34.99 34.28 35.51L34.28 35.51Q34.28 38.50 32.01 39.86Q29.73 41.23 26.81 41.55Q23.88 41.88 21.80 41.88ZM71.20 41.10L66.65 41.10Q58.85 41.10 58.85 36.94L58.85 36.94L58.85-33.13L38.18-33.13Q34.28-33.13 34.28-39.63L34.28-39.63L34.28-43.66Q34.28-50.16 38.18-50.16L38.18-50.16L99.67-50.16Q103.57-50.16 103.57-43.66L103.57-43.66L103.57-39.63Q103.57-33.13 99.67-33.13L99.67-33.13L79.00-33.13L79.00 36.94Q79.00 41.10 71.20 41.10L71.20 41.10ZM132.56 41.88L132.56 41.88Q117.09 41.88 109.03 32.78Q100.97 23.68 100.97 6.78L100.97 6.78Q100.97-10.25 109.03-19.22Q117.09-28.19 132.56-28.19L132.56-28.19Q148.03-28.19 156.03-19.22Q164.02-10.25 164.02 6.78L164.02 6.78Q164.02 23.68 156.03 32.78Q148.03 41.88 132.56 41.88ZM132.56 26.67L132.56 26.67Q138.80 26.67 141.66 21.60Q144.52 16.53 144.52 6.78L144.52 6.78Q144.52-2.97 141.66-7.98Q138.80-12.98 132.56-12.98L132.56-12.98Q126.32-12.98 123.40-7.98Q120.47-2.97 120.47 6.78L120.47 6.78Q120.47 16.53 123.40 21.60Q126.32 26.67 132.56 26.67ZM196.26 41.88L196.26 41.88Q186.51 41.88 181.83 36.74Q177.15 31.61 177.15 20.82L177.15 20.82L177.15-23.25Q177.15-27.41 184.95-27.41L184.95-27.41L188.59-27.41Q196.39-27.41 196.39-23.25L196.39-23.25L196.39 17.96Q196.39 21.73 198.15 23.87Q199.90 26.02 204.19 26.02L204.19 26.02Q208.22 26.02 210.82 23.35Q213.42 20.69 214.59 18.48L214.59 18.48L214.59-23.25Q214.59-27.41 222.39-27.41L222.39-27.41L226.03-27.41Q233.83-27.41 233.83-23.25L233.83-23.25L233.83 17.96Q233.83 24.72 234.22 28.29Q234.61 31.87 235.00 33.62Q235.39 35.38 235.39 36.81L235.39 36.81Q235.39 37.98 233.64 38.76Q231.88 39.54 229.35 40.06Q226.81 40.58 224.41 40.77Q222.00 40.97 220.83 40.97L220.83 40.97Q218.75 40.97 217.78 39.47Q216.80 37.98 216.41 35.83Q216.02 33.69 215.63 32.00L215.63 32.00Q212.77 35.64 207.70 38.76Q202.63 41.88 196.26 41.88ZM261.39 41.10L257.75 41.10Q249.95 41.10 249.95 36.94L249.95 36.94L249.95-4.27Q249.95-10.77 249.56-14.28Q249.17-17.79 248.78-19.55Q248.39-21.30 248.39-22.60L248.39-22.60Q248.39-23.77 250.15-24.55Q251.90-25.33 254.44-25.85Q256.97-26.37 259.38-26.57Q261.78-26.76 262.95-26.76L262.95-26.76Q265.03-26.76 266.01-25.33Q266.98-23.90 267.37-21.95Q267.76-20.00 268.15-18.31L268.15-18.31Q270.23-22.08 273.48-25.14Q276.73-28.19 282.32-28.19L282.32-28.19Q287.13-28.19 288.43-26.24Q289.73-24.29 289.73-21.17L289.73-21.17Q289.73-20.00 289.28-17.34Q288.82-14.67 287.91-12.46Q287.00-10.25 285.70-10.25L285.70-10.25Q284.40-10.25 282.97-10.77Q281.54-11.29 279.59-11.29L279.59-11.29Q276.99-11.29 274.91-10.19Q272.83-9.08 271.40-7.59Q269.97-6.09 269.19-4.79L269.19-4.79L269.19 36.94Q269.19 41.10 261.39 41.10L261.39 41.10Z"/></g>
</svg>