<svg xmlns="http://www.w3.org/2000/svg" xmlns:xlink="http://www.w3.org/1999/xlink" version="1.1" width="1000" height="1000" viewBox="0 0 1000 1000" xml:space="preserve">
<desc>Created with Fabric.js 3.5.0</desc>
<defs>
</defs>
<rect x="0" y="0" width="100%" height="100%" fill="rgba(255,255,255,0)"/>
<g transform="matrix(0.3975 0 0 0.3975 150.7729 500)" id="312527">
<g style="" vector-effect="non-scaling-stroke">
		<g transform="matrix(12.5 0 0 12.5 0 0)">
<circle style="stroke: rgb(53,84,209); stroke-width: 1; stroke-dasharray: none; stroke-linecap: butt; stroke-dashoffset: 0; stroke-linejoin: miter; stroke-miterlimit: 4; is-custom-font: none; font-file-url: none; fill: rgb(255,255,255); fill-rule: nonzero; opacity: 1;" cx="0" cy="0" r="30"/>
</g>
		<g transform="matrix(12.5 0 0 12.5 11.875 -1.25)">
<path style="stroke: rgb(53,84,209); stroke-width: 1; stroke-dasharray: none; stroke-linecap: butt; stroke-dashoffset: 0; stroke-linejoin: miter; stroke-miterlimit: 4; is-custom-font: none; font-file-url: none; fill: rgb(53,84,209); fill-rule: nonzero; opacity: 1;" transform=" translate(-32.95, -31.9)" d="M 39.6 18.2 c 1.1 0.5 2 1.1 2.7 2 c 0.6 0.7 1.1 1.5 1.5 2.4 c 0.4 0.9 0.5 1.9 0.5 3.1 c 0 1.4 -0.3 2.7 -1 4.1 s -1.8 2.3 -3.4 2.8 c 1.3 0.5 2.3 1.3 2.8 2.3 c 0.6 1 0.8 2.5 0.8 4.5 v 1.9 c 0 1.3 0.1 2.2 0.2 2.7 c 0.2 0.7 0.5 1.3 1.1 1.7 v 0.7 h -6.7 c -0.2 -0.6 -0.3 -1.2 -0.4 -1.6 c -0.2 -0.8 -0.2 -1.6 -0.3 -2.5 v -2.7 c 0 -1.8 -0.3 -3.1 -1 -3.7 c -0.6 -0.6 -1.8 -0.9 -3.5 -0.9 H 27 v 11.4 h -5.9 v -29 H 35 c 2 0.1 3.6 0.4 4.6 0.8 m -12.5 4.3 v 7.8 h 6.5 c 1.3 0 2.3 -0.2 2.9 -0.5 c 1.1 -0.6 1.7 -1.6 1.7 -3.3 c 0 -1.8 -0.6 -2.9 -1.7 -3.5 c -0.6 -0.3 -1.6 -0.5 -2.8 -0.5 h -6.6" stroke-linecap="round"/>
</g>
</g>
</g>
<g transform="matrix(1 0 0 1 709.0993 492.346)" style="" id="50509">
		
<path xml:space="preserve" font-family="Asap" font-size="144" font-style="normal" font-weight="bold" style="stroke: none; stroke-width: 0; stroke-dasharray: none; stroke-linecap: butt; stroke-dashoffset: 0; stroke-linejoin: miter; stroke-miterlimit: 4; is-custom-font: none; font-file-url: none; fill: rgb(255,255,255); fill-rule: nonzero; opacity: 1; white-space: pre;" d="M-328.36 45.52L-333.26 45.52Q-341.90 45.52-341.90 40.92L-341.90 40.92L-341.90-49.80Q-341.90-55.56-336.14-55.56L-336.14-55.56L-308.06-55.56Q-289.34-55.56-280.77-48.51Q-272.20-41.45-272.20-28.49L-272.20-28.49Q-272.20-20.14-276.88-14.31Q-281.56-8.48-289.05-5.60L-289.05-5.60L-289.05-5.02Q-286.32-4.01-283.44-0.20Q-280.56 3.62-278.68 8.23L-278.68 8.23L-266.01 39.91Q-265.29 41.78-265.29 42.64L-265.29 42.64Q-265.29 45.52-273.93 45.52L-273.93 45.52L-279.84 45.52Q-283.00 45.52-285.24 44.88Q-287.47 44.23-288.19 42.50L-288.19 42.50L-299.56 14.42Q-301.72 10.10-304.39 7.94Q-307.05 5.78-314.11 5.78L-314.11 5.78L-319.72 5.78L-319.72 40.92Q-319.72 45.52-328.36 45.52L-328.36 45.52ZM-319.72-36.70L-319.72-13.37L-306.04-13.37Q-303.02-13.37-300.50-15.03Q-297.98-16.68-296.47-19.49Q-294.96-22.30-294.96-25.76L-294.96-25.76Q-294.96-30.80-298.20-33.75Q-301.44-36.70-307.05-36.70L-307.05-36.70L-319.72-36.70ZM-222.96 46.39L-222.96 46.39Q-240.09 46.39-249.02 36.31Q-257.95 26.23-257.95 7.51L-257.95 7.51Q-257.95-11.36-249.02-21.29Q-240.09-31.23-222.96-31.23L-222.96-31.23Q-205.82-31.23-196.96-21.29Q-188.11-11.36-188.11 7.51L-188.11 7.51Q-188.11 26.23-196.96 36.31Q-205.82 46.39-222.96 46.39ZM-222.96 29.54L-222.96 29.54Q-216.04 29.54-212.88 23.92Q-209.71 18.31-209.71 7.51L-209.71 7.51Q-209.71-3.29-212.88-8.84Q-216.04-14.38-222.96-14.38L-222.96-14.38Q-229.87-14.38-233.11-8.84Q-236.35-3.29-236.35 7.51L-236.35 7.51Q-236.35 18.31-233.11 23.92Q-229.87 29.54-222.96 29.54ZM-156.28 74.90L-158.73 74.90Q-167.37 74.90-167.37 71.88L-167.37 71.88Q-167.37 71.30-167.23 70.65Q-167.08 70.00-166.80 69.28L-166.80 69.28L-154.84 37.46L-154.84 53.30L-181.48-24.60Q-181.63-25.32-181.84-25.97Q-182.06-26.62-182.06-27.20L-182.06-27.20Q-182.06-30.36-173.28-30.36L-173.28-30.36L-168.67-30.36Q-165.50-30.36-163.34-29.72Q-161.18-29.07-160.60-27.34L-160.60-27.34L-152.11-0.70Q-151.39 1.75-150.24 6.93Q-149.08 12.12-148.08 16.72L-148.08 16.72L-147.50 16.72Q-146.49 12.12-145.34 6.86Q-144.19 1.60-143.47-0.70L-143.47-0.70L-134.97-27.34Q-134.40-29.07-132.24-29.72Q-130.08-30.36-126.91-30.36L-126.91-30.36L-123.45-30.36Q-114.81-30.36-114.81-27.20L-114.81-27.20Q-114.81-26.19-115.24-24.60L-115.24-24.60L-148.22 71.88Q-148.80 73.60-150.96 74.25Q-153.12 74.90-156.28 74.90L-156.28 74.90ZM-88.32 46.39L-88.32 46.39Q-99.98 46.39-104.80 40.27Q-109.63 34.15-109.63 25.36L-109.63 25.36Q-109.63 20.90-108.26 16.22Q-106.89 11.54-102.72 7.51Q-98.54 3.48-90.26 1.03Q-81.98-1.42-68.30-1.42L-68.30-1.42L-68.30-6.17Q-68.30-10.35-70.96-12.36Q-73.63-14.38-79.53-14.38L-79.53-14.38Q-84.72-14.38-88.53-13.23Q-92.35-12.08-94.72-10.92Q-97.10-9.77-97.96-9.77L-97.96-9.77Q-99.40-9.77-101.20-12.00Q-103.00-14.24-104.23-17.04Q-105.45-19.85-105.45-21.29L-105.45-21.29Q-105.45-23.74-101.92-26.04Q-98.40-28.35-92.13-29.79Q-85.87-31.23-77.95-31.23L-77.95-31.23Q-66.57-31.23-59.80-28.13Q-53.04-25.04-50.01-19.64Q-46.99-14.24-46.99-7.18L-46.99-7.18L-46.99 19.89Q-46.99 27.38-46.56 31.34Q-46.12 35.30-45.69 37.24Q-45.26 39.19-45.26 40.77L-45.26 40.77Q-45.26 42.07-47.20 42.93Q-49.15 43.80-51.96 44.37Q-54.76 44.95-57.43 45.16Q-60.09 45.38-61.39 45.38L-61.39 45.38Q-63.69 45.38-64.77 43.72Q-65.85 42.07-66.28 39.69Q-66.72 37.32-67.15 35.44L-67.15 35.44Q-67.58 36.31-70.10 38.97Q-72.62 41.64-77.16 44.01Q-81.69 46.39-88.32 46.39ZM-81.26 29.54L-81.26 29.54Q-77.08 29.54-73.56 26.95Q-70.03 24.36-68.30 20.47L-68.30 20.47L-68.30 12.55Q-73.48 12.55-77.23 13.27Q-80.97 13.99-83.49 15.28Q-86.01 16.58-87.24 18.60Q-88.46 20.61-88.46 23.20L-88.46 23.20Q-88.46 25.94-86.66 27.74Q-84.86 29.54-81.26 29.54ZM-7.10 46.39L-7.10 46.39Q-12.14 46.39-16.10 45.02Q-20.06 43.65-22.72 40.77Q-25.39 37.89-26.76 33.50Q-28.12 29.11-28.12 23.06L-28.12 23.06L-28.12-58.73Q-28.12-63.34-19.48-63.34L-19.48-63.34L-15.45-63.34Q-6.81-63.34-6.81-58.73L-6.81-58.73L-6.81 23.35Q-6.81 26.52-5.59 28.03Q-4.36 29.54-1.63 29.54L-1.63 29.54Q-0.62 29.54 0.53 29.25Q1.68 28.96 2.26 28.96L2.26 28.96Q3.70 28.96 4.71 31.34Q5.72 33.72 6.22 36.24Q6.72 38.76 6.72 39.33L6.72 39.33Q6.72 42.64 4.20 44.16Q1.68 45.67-1.56 46.03Q-4.80 46.39-7.10 46.39ZM47.62 45.52L42.58 45.52Q33.94 45.52 33.94 40.92L33.94 40.92L33.94-36.70L11.04-36.70Q6.72-36.70 6.72-43.90L6.72-43.90L6.72-48.36Q6.72-55.56 11.04-55.56L11.04-55.56L79.16-55.56Q83.48-55.56 83.48-48.36L83.48-48.36L83.48-43.90Q83.48-36.70 79.16-36.70L79.16-36.70L56.26-36.70L56.26 40.92Q56.26 45.52 47.62 45.52L47.62 45.52ZM115.59 46.39L115.59 46.39Q98.45 46.39 89.52 36.31Q80.60 26.23 80.60 7.51L80.60 7.51Q80.60-11.36 89.52-21.29Q98.45-31.23 115.59-31.23L115.59-31.23Q132.72-31.23 141.58-21.29Q150.44-11.36 150.44 7.51L150.44 7.51Q150.44 26.23 141.58 36.31Q132.72 46.39 115.59 46.39ZM115.59 29.54L115.59 29.54Q122.50 29.54 125.67 23.92Q128.84 18.31 128.84 7.51L128.84 7.51Q128.84-3.29 125.67-8.84Q122.50-14.38 115.59-14.38L115.59-14.38Q108.68-14.38 105.44-8.84Q102.20-3.29 102.20 7.51L102.20 7.51Q102.20 18.31 105.44 23.92Q108.68 29.54 115.59 29.54ZM186.15 46.39L186.15 46.39Q175.35 46.39 170.16 40.70Q164.98 35.01 164.98 23.06L164.98 23.06L164.98-25.76Q164.98-30.36 173.62-30.36L173.62-30.36L177.65-30.36Q186.29-30.36 186.29-25.76L186.29-25.76L186.29 19.89Q186.29 24.07 188.24 26.44Q190.18 28.82 194.93 28.82L194.93 28.82Q199.40 28.82 202.28 25.87Q205.16 22.92 206.45 20.47L206.45 20.47L206.45-25.76Q206.45-30.36 215.09-30.36L215.09-30.36L219.12-30.36Q227.76-30.36 227.76-25.76L227.76-25.76L227.76 19.89Q227.76 27.38 228.20 31.34Q228.63 35.30 229.06 37.24Q229.49 39.19 229.49 40.77L229.49 40.77Q229.49 42.07 227.55 42.93Q225.60 43.80 222.80 44.37Q219.99 44.95 217.32 45.16Q214.66 45.38 213.36 45.38L213.36 45.38Q211.06 45.38 209.98 43.72Q208.90 42.07 208.47 39.69Q208.04 37.32 207.60 35.44L207.60 35.44Q204.44 39.48 198.82 42.93Q193.20 46.39 186.15 46.39ZM258.29 45.52L254.26 45.52Q245.62 45.52 245.62 40.92L245.62 40.92L245.62-4.73Q245.62-11.93 245.19-15.82Q244.76-19.71 244.32-21.65Q243.89-23.60 243.89-25.04L243.89-25.04Q243.89-26.33 245.84-27.20Q247.78-28.06 250.59-28.64Q253.40-29.21 256.06-29.43Q258.72-29.64 260.02-29.64L260.02-29.64Q262.32-29.64 263.40-28.06Q264.48-26.48 264.92-24.32Q265.35-22.16 265.78-20.28L265.78-20.28Q268.08-24.46 271.68-27.84Q275.28-31.23 281.48-31.23L281.48-31.23Q286.80-31.23 288.24-29.07Q289.68-26.91 289.68-23.45L289.68-23.45Q289.68-22.16 289.18-19.20Q288.68-16.25 287.67-13.80Q286.66-11.36 285.22-11.36L285.22-11.36Q283.78-11.36 282.20-11.93Q280.61-12.51 278.45-12.51L278.45-12.51Q275.57-12.51 273.27-11.28Q270.96-10.06 269.38-8.40Q267.80-6.75 266.93-5.31L266.93-5.31L266.93 40.92Q266.93 45.52 258.29 45.52L258.29 45.52Z"/></g>
</svg>