<?xml version="1.0" encoding="utf-8"?>
<!-- Generator: Adobe Illustrator 24.1.0, SVG Export Plug-In . SVG Version: 6.00 Build 0)  -->
<svg version="1.1" id="Capa_1" xmlns="http://www.w3.org/2000/svg" xmlns:xlink="http://www.w3.org/1999/xlink" x="0px" y="0px" width="56" height="50"
	 viewBox="0 0 71 74" style="enable-background:new 0 0 71 74;" xml:space="preserve">
<style type="text/css">
	.st0{fill:#051036;}
	.st1{fill:#051036;}
</style>
<g>
	<path class="st1" d="M35.5,0.8c0,0-22.9,1.3-23.9,25.5c0,0,4.6-3.6,8.7,0c0,0,8.4-3.7,10.2,1c0,0,5.5-5,9.7,0c0,0,6-4.7,9.7-0.4
		c0,0,5.5-4.2,9,0.4C58.9,27.3,63,4.6,35.5,0.8z"/>
	<path class="st0" d="M35.5,0C21.7,0,10.4,11.3,10.4,25.1v5.1l13,21.2l-3.8,8.4c-0.6,1.3-0.9,2.7-0.9,4.1c0,5.5,4.5,10.1,10.1,10.1
		h13.3c5.5,0,10.1-4.5,10.1-10.1c0-1.4-0.3-2.8-0.9-4.1l-3.8-8.4l13-21.2v-5.1C60.6,11.3,49.3,0,35.5,0z M58.2,25.1L58.2,25.1
		c-1-0.7-2.2-1.2-3.6-1.2c-1.4,0-2.6,0.5-3.7,1.3C50.2,13.7,43.8,6.4,39.6,2.8C50.2,4.7,58.2,14,58.2,25.1z M45.5,52.5l2.1,4.8H23.4
		l2.1-4.8H45.5z M35.3,50.1l-3.4-20.4c0-1.9,1.6-3.5,3.6-3.5c2,0,3.5,1.6,3.6,3.5l-3.4,20.3H35.3z M34.3,24
		c-1.5,0.3-2.7,1.1-3.6,2.3c-1.1-1.5-2.8-2.4-4.8-2.4c-1.3,0-2.5,0.4-3.5,1.1c0.9-11.7,8.3-18.8,11.8-21.5V24z M26,26.3
		c2,0,3.6,1.6,3.6,3.6l3.4,20.3h-2.5l-8-20.5C22.5,27.8,24,26.3,26,26.3z M38.1,50.1L41.5,30l0-0.2c0-2,1.6-3.6,3.6-3.6
		c1.9,0,3.5,1.5,3.6,3.4l-8,20.5H38.1z M45,23.9c-2,0-3.7,1-4.8,2.4c-0.9-1.2-2.1-2-3.6-2.3V3.5c3.5,2.7,10.9,9.8,11.8,21.5
		C47.5,24.3,46.3,23.9,45,23.9z M31.4,2.8c-4.1,3.6-10.5,10.9-11.3,22.4c-1-0.8-2.3-1.3-3.7-1.3c-1.3,0-2.6,0.5-3.6,1.2v0
		C12.8,14,20.8,4.7,31.4,2.8z M16.4,26.3c2,0,3.6,1.6,3.6,3.6v0.2l7.8,20.1h-2.4L12.8,29.5C13,27.7,14.5,26.3,16.4,26.3z M42.2,71.6
		H28.8c-4.2,0-7.7-3.4-7.7-7.7c0-1.1,0.2-2.1,0.7-3.1l0.5-1.2h26.3l0.5,1.2c0.4,1,0.7,2,0.7,3.1C49.8,68.2,46.4,71.6,42.2,71.6z
		 M45.6,50.1h-2.4L51,30.1v-0.2c0-2,1.6-3.6,3.6-3.6c1.9,0,3.4,1.4,3.6,3.3L45.6,50.1z"/>
</g>
</svg>
