<svg width="55" height="55" viewBox="0 0 55 55" fill="none" xmlns="http://www.w3.org/2000/svg">
<path d="M0 27.6247C0 26.6469 0 25.6691 0 24.6913C0.679556 24.2416 1.35911 23.7918 2.178 23.2491C2.178 19.6216 2.18044 15.8009 2.17067 11.9778C2.17067 11.748 2.07044 11.5182 2.00689 11.2909C1.77467 10.4647 1.46178 9.65067 1.33222 8.80978C1.23444 8.18644 1.48133 7.51178 1.38356 6.88844C1.14156 5.31911 1.69889 4.12378 2.83556 3.09711C3.95022 2.08756 5.02089 1.034 6.11111 0C6.35556 0 6.6 0 6.84444 0C7.92489 1.04133 9.08356 2.01667 10.0564 3.15089C10.6896 3.88911 11.4889 4.88156 11.4449 5.72C11.3422 7.634 12.2784 9.70933 10.8167 11.4889C10.6724 11.6649 10.758 12.0413 10.758 12.3249C10.7556 15.664 10.7531 19.0031 10.758 22.3422C10.758 22.77 10.7971 23.1953 10.8142 23.5718C12.1709 23.5718 13.3711 23.5718 14.586 23.5718C14.586 22.4302 14.586 21.384 14.586 20.3549C12.5547 19.7193 12.4789 19.5091 12.4471 17.1356C12.4178 14.9013 14.0898 15.1384 15.5858 14.9844C14.1436 10.758 16.06 8.07156 19.3307 5.83489C22.0122 4.00889 24.5398 1.95556 27.1333 0C27.3778 0 27.6222 0 27.8667 0C27.9131 0.0635556 27.9498 0.146667 28.0109 0.190667C30.8562 2.29044 33.7089 4.38533 36.5518 6.48756C38.8618 8.19622 40.2844 10.3376 39.8224 13.3613C39.7442 13.8722 39.5804 14.3684 39.4582 14.8696C42.5431 15.6567 42.5431 15.6567 42.5431 17.9862C42.5431 19.4798 42.2009 19.8636 40.4384 20.3109C40.4384 21.384 40.4384 22.462 40.4384 23.5987C41.7144 23.5987 42.9122 23.5987 44.11 23.5987C44.1638 23.4178 44.2249 23.3053 44.2249 23.1929C44.2347 19.448 44.2396 15.7007 44.2347 11.9558C44.2347 11.7236 44.1467 11.4864 44.0904 11.2567C43.8802 10.4207 43.5967 9.59689 43.4696 8.74867C43.3767 8.12044 43.5551 7.45556 43.4818 6.82C43.3058 5.26778 43.8411 4.06022 44.9973 3.036C46.0876 2.068 47.1069 1.01444 48.1556 0C48.4 0 48.6444 0 48.8889 0C49.9498 1.00956 50.9862 2.04356 52.074 3.02133C53.4209 4.22889 54.2813 9.14956 53.4698 10.7458C53.1276 11.4229 52.888 12.2149 52.8489 12.9678C52.7584 14.7156 52.8196 16.4682 52.8196 18.2209C52.8196 20.0053 52.8196 21.7873 52.8196 23.2002C53.7289 23.8236 54.3644 24.2562 54.9976 24.6913C54.9976 25.6691 54.9976 26.6469 54.9976 27.6247C54.4744 28.0989 53.9513 28.5756 53.2864 29.1793C53.2864 29.1549 53.2767 29.3553 53.2889 29.5582C53.3549 30.7169 53.262 31.7729 51.9029 32.2153C51.7367 32.2691 51.5851 32.6553 51.5851 32.8876C51.5656 37.3609 51.5704 41.8342 51.5704 46.3613C53.6262 46.7598 53.262 48.3707 53.2938 49.4389C53.988 50.1136 54.494 50.6049 54.9976 51.0938C54.9976 52.3942 54.9976 53.6971 54.9976 55C36.6667 55 18.3333 55 0 55C0 53.614 0 52.2304 0 50.8493C0.532889 50.4484 1.06578 50.05 1.70378 49.5709C1.694 48.3022 1.44467 46.7476 3.39778 46.3467C3.39778 41.6509 3.39778 37.0236 3.39778 32.2813C1.408 31.9416 1.71356 30.3551 1.70378 29.1647C1.04378 28.5707 0.523111 28.0964 0 27.6247ZM10.318 46.3736C10.318 44.4107 10.2104 42.4991 10.3596 40.6071C10.4427 39.5609 10.7189 38.3656 11.3324 37.5613C12.2736 36.322 13.5569 35.332 14.7498 34.298C15.0016 34.0804 15.5418 33.968 15.8547 34.0804C18.3309 34.9629 20.6042 38.3827 20.5798 41.0642C20.5651 42.8047 20.5773 44.5476 20.5773 46.3564C21.2227 46.3564 21.7287 46.3564 22.3813 46.3564C22.3813 44.3862 22.2762 42.4698 22.4229 40.5729C22.506 39.5242 22.7724 38.3264 23.386 37.5222C24.3296 36.2853 25.6202 35.3027 26.8204 34.276C27.0673 34.0633 27.6149 33.9827 27.9253 34.1C30.4333 35.0411 32.6627 38.4267 32.6333 41.1058C32.6138 42.8438 32.6284 44.5818 32.6284 46.354C33.2738 46.354 33.7798 46.354 34.4202 46.354C34.4202 44.4156 34.3127 42.5407 34.4618 40.6878C34.5498 39.5976 34.7893 38.346 35.4224 37.5149C36.388 36.2462 37.7349 35.2636 38.9571 34.2027C39.1551 34.0291 39.5878 33.9704 39.8518 34.0511C42.1056 34.7404 44.682 38.3411 44.682 40.7367C44.682 42.5969 44.682 44.4571 44.682 46.332C45.342 46.332 45.8407 46.332 46.3589 46.332C46.3589 41.6142 46.3589 36.9893 46.3589 32.2911C33.7651 32.2911 21.2447 32.2911 8.65822 32.2911C8.65822 37.0138 8.65822 41.668 8.65822 46.3687C9.22044 46.3736 9.68978 46.3736 10.318 46.3736ZM27.4316 2.10222C26.7056 2.65956 25.9551 3.27556 25.168 3.83778C23.1831 5.25556 21.1396 6.59756 19.1962 8.06667C16.8887 9.812 16.2116 11.9704 17.1111 14.1264C17.3898 14.7987 17.7687 15.1067 18.5631 15.1018C24.5007 15.0651 30.4407 15.0578 36.3782 15.1067C37.3144 15.114 37.6811 14.6911 37.9549 13.9382C38.7127 11.8384 38.1016 9.81689 35.9236 8.17178C33.1711 6.094 30.3136 4.15067 27.4316 2.10222ZM1.76978 53.2082C18.986 53.2082 36.102 53.2082 53.2327 53.2082C53.2327 52.6509 53.2327 52.1791 53.2327 51.6389C36.0604 51.6389 18.942 51.6389 1.76978 51.6389C1.76978 52.1742 1.76978 52.646 1.76978 53.2082ZM53.2302 25.4296C36.014 25.4296 18.9004 25.4296 1.76978 25.4296C1.76978 26.004 1.76978 26.4782 1.76978 27.0282C18.9444 27.0282 36.0604 27.0282 53.2302 27.0282C53.2302 26.4758 53.2302 26.0016 53.2302 25.4296ZM3.48089 30.4407C19.5678 30.4407 35.5422 30.4407 51.5118 30.4407C51.5118 29.8687 51.5118 29.3944 51.5118 28.8616C35.4787 28.8616 19.5067 28.8616 3.48089 28.8616C3.48089 29.4164 3.48089 29.8907 3.48089 30.4407ZM3.48089 49.7787C19.558 49.7787 35.5324 49.7787 51.5142 49.7787C51.5142 49.2164 51.5142 48.7422 51.5142 48.1971C35.4836 48.1971 19.5091 48.1971 3.48089 48.1971C3.48089 48.7422 3.48089 49.2164 3.48089 49.7787ZM30.9833 46.3882C30.9833 44.7358 30.8538 43.1836 31.0127 41.6631C31.2816 39.0793 29.7587 37.5784 27.984 36.1924C27.7884 36.0409 27.2653 35.9798 27.1504 36.1069C26.1067 37.2704 24.5618 38.3558 24.2464 39.7173C23.7576 41.822 24.1169 44.1247 24.1169 46.3907C26.4 46.3882 28.5902 46.3882 30.9833 46.3882ZM43.0027 46.3589C43.0027 44.6453 42.8829 43.0491 43.0296 41.4773C43.2667 38.9327 41.6851 37.5247 39.9789 36.1533C39.82 36.0262 39.4582 35.9236 39.3336 36.0116C37.9402 37.0162 36.3831 38.0624 36.1704 39.8591C35.9211 41.9736 36.1118 44.1393 36.1118 46.3564C38.4316 46.3589 40.6462 46.3589 43.0027 46.3589ZM12.0389 46.3613C14.3562 46.3613 16.5684 46.3613 18.9347 46.3613C18.9347 44.7529 18.8027 43.2056 18.964 41.6876C19.2353 39.1209 17.7907 37.5858 15.9793 36.2193C15.7716 36.0629 15.2998 35.9651 15.1384 36.0873C13.8111 37.1018 12.2931 38.1382 12.0951 39.886C11.8556 42.0004 12.0389 44.1638 12.0389 46.3613ZM38.6222 20.2351C31.1349 20.2351 23.7967 20.2351 16.4022 20.2351C16.4022 21.3987 16.4022 22.4718 16.4022 23.5693C23.848 23.5693 31.2156 23.5693 38.6222 23.5693C38.6222 22.4204 38.6222 21.3767 38.6222 20.2351ZM3.95267 11.6258C3.95267 15.6518 3.95267 19.6044 3.95267 23.5742C5.68089 23.5742 7.31867 23.5742 8.932 23.5742C8.932 19.5262 8.932 15.5736 8.932 11.6258C7.21356 11.6258 5.60511 11.6258 3.95267 11.6258ZM46.0289 11.6184C46.0289 15.6884 46.0289 19.6142 46.0289 23.5938C47.7351 23.5938 49.3753 23.5938 51.0424 23.5938C51.0424 19.5629 51.0424 15.6102 51.0424 11.6184C49.3362 11.6184 47.7278 11.6184 46.0289 11.6184ZM14.2364 18.458C23.1 18.458 31.9073 18.458 40.7684 18.458C40.7684 17.8762 40.7684 17.3629 40.7684 16.7811C31.9122 16.7811 23.1024 16.7811 14.2364 16.7811C14.2364 17.3678 14.2364 17.8787 14.2364 18.458ZM5.23356 32.2862C5.23356 37.0602 5.23356 41.7144 5.23356 46.3687C5.80067 46.3687 6.27244 46.3687 6.80289 46.3687C6.80289 41.6484 6.80289 36.9942 6.80289 32.2862C6.25778 32.2862 5.78356 32.2862 5.23356 32.2862ZM48.224 32.2838C48.224 37.0676 48.224 41.7193 48.224 46.3662C48.7984 46.3662 49.2702 46.3662 49.786 46.3662C49.786 41.646 49.786 36.9918 49.786 32.2838C49.2409 32.2838 48.7691 32.2838 48.224 32.2838ZM6.45089 2.01422C5.28733 3.61289 3.26089 4.19222 2.948 6.38C5.29467 6.38 7.53622 6.38 9.91467 6.38C9.658 4.17511 7.612 3.61289 6.45089 2.01422ZM48.5589 2.04356C47.3709 3.608 45.3616 4.20444 45.0584 6.38489C47.4393 6.38489 49.6833 6.38489 52.0838 6.38489C51.7098 4.22889 49.7518 3.59089 48.5589 2.04356ZM9.83644 9.856C9.83644 9.43311 9.83644 9.04933 9.83644 8.66067C7.53133 8.66067 5.28489 8.66067 2.96756 8.66067C2.99933 9.10311 3.02622 9.45022 3.05556 9.856C5.34356 9.856 7.55333 9.856 9.83644 9.856ZM45.2222 8.63378C45.012 9.29867 44.8678 9.90244 45.8529 9.90489C47.8036 9.91222 49.7542 9.88533 51.7049 9.86089C51.8027 9.85844 51.898 9.73378 52.0227 9.64578C52.0056 9.328 51.9884 9.01022 51.9689 8.63133C49.7053 8.63378 47.4858 8.63378 45.2222 8.63378Z" fill="#051036"/>
<path d="M30.9834 46.3884C28.5902 46.3884 26.3976 46.3884 24.1169 46.3884C24.1169 44.1224 23.7576 41.8198 24.2465 39.7151C24.5618 38.356 26.1067 37.2706 27.1505 36.1046C27.2653 35.9775 27.7909 36.0386 27.984 36.1902C29.7587 37.5786 31.2791 39.0771 31.0127 41.6609C30.8538 43.1838 30.9834 44.736 30.9834 46.3884Z" fill="#051036"/>
<path d="M43.0027 46.3586C40.6462 46.3586 38.4315 46.3586 36.1142 46.3586C36.1142 44.1415 35.9235 41.9757 36.1729 39.8613C36.3831 38.0622 37.9426 37.0184 39.336 36.0137C39.4582 35.9257 39.8224 36.026 39.9813 36.1555C41.6875 37.5268 43.2691 38.9349 43.032 41.4795C42.8829 43.0489 43.0027 44.6451 43.0027 46.3586Z" fill="#051036"/>
<path d="M12.0389 46.3613C12.0389 44.1638 11.8555 42.0004 12.0951 39.8884C12.2955 38.1406 13.8111 37.1042 15.1384 36.0897C15.2998 35.9675 15.7715 36.0653 15.9793 36.2217C17.7907 37.5882 19.2329 39.1233 18.964 41.69C18.8027 43.208 18.9347 44.7553 18.9347 46.3638C16.5684 46.3613 14.3562 46.3613 12.0389 46.3613Z" fill="#051036"/>
<path d="M49.3802 15.109C49.3729 15.109 49.3655 15.109 49.3607 15.109C49.3607 14.7472 49.4609 14.3439 49.3313 14.0384C49.2189 13.7695 48.8571 13.4517 48.5907 13.4395C48.3242 13.4248 47.8304 13.7279 47.7987 13.9479C47.6935 14.6519 47.6862 15.3926 47.7864 16.0965C47.8207 16.3312 48.3315 16.6979 48.5564 16.6539C48.8644 16.5952 49.1773 16.2432 49.3582 15.9401C49.478 15.7299 49.3802 15.3901 49.3802 15.109ZM49.3729 20.1591C49.3802 20.1591 49.3851 20.1591 49.3924 20.1591C49.3924 19.9587 49.4658 19.7118 49.3778 19.5651C49.1602 19.2009 48.8693 18.8807 48.6078 18.5409C48.3022 18.8807 47.8549 19.1765 47.7302 19.5749C47.5811 20.0491 47.6178 20.6358 47.7571 21.1198C47.8427 21.4107 48.2753 21.7847 48.554 21.7847C48.8253 21.7871 49.1871 21.4082 49.346 21.1076C49.478 20.8582 49.3729 20.4818 49.3729 20.1591Z" fill="#051036"/>
<path d="M18.2234 12.3641C18.7269 11.4768 18.9836 10.6408 19.5385 10.1324C20.548 9.20597 21.7091 8.42866 22.8703 7.69045C23.1074 7.5389 23.6256 7.83223 24.0143 7.92023C23.914 8.30888 23.9385 8.84176 23.6867 9.05687C22.8898 9.74374 21.9414 10.2546 21.1494 10.9488C20.7289 11.3179 20.3354 11.8924 20.2498 12.4277C20.1471 13.0705 20.2034 13.8039 19.3649 13.6401C18.9469 13.5545 18.6487 12.8628 18.2234 12.3641Z" fill="#051036"/>
<path d="M30.2036 21.0396C30.5531 21.064 30.9345 20.9858 31.1789 21.1324C31.4429 21.2913 31.7045 21.6481 31.7313 21.9438C31.7533 22.1736 31.4429 22.6306 31.24 22.655C30.4896 22.7454 29.7147 22.7601 28.9667 22.6623C28.7369 22.633 28.3996 22.1442 28.4118 21.8827C28.424 21.6139 28.7613 21.2473 29.0425 21.1324C29.392 20.9907 29.8296 21.0591 30.2036 21.0396Z" fill="#051036"/>
<path d="M35.1193 22.8164C34.7013 22.7406 34.2393 22.77 33.9362 22.5646C33.7089 22.4106 33.5524 21.6944 33.5915 21.6749C34.0902 21.4207 34.6329 21.0858 35.1609 21.0931C35.7353 21.1005 36.3073 21.4402 36.8793 21.6333C36.7644 21.9535 36.7351 22.4473 36.5151 22.5573C36.1069 22.7626 35.5862 22.7431 35.1193 22.8164Z" fill="#051036"/>
<path d="M19.6704 22.7333C19.3869 22.7333 19.0422 22.836 18.8344 22.7089C18.5313 22.5231 18.326 22.176 18.0815 21.8973C18.5362 21.6162 18.9713 21.1445 19.448 21.0956C20.174 21.0223 21.1909 20.6947 21.428 21.8631C21.4744 22.0953 21.054 22.5451 20.7484 22.6942C20.4551 22.8384 20.0346 22.726 19.6704 22.726C19.6704 22.7284 19.6704 22.7309 19.6704 22.7333Z" fill="#051036"/>
<path d="M24.8258 22.7629C24.5007 22.7433 24.1218 22.824 23.8675 22.6798C23.5938 22.5258 23.3078 22.1835 23.2687 21.8902C23.2393 21.6653 23.562 21.1984 23.7673 21.174C24.5227 21.0836 25.3049 21.0713 26.0578 21.1691C26.2802 21.1984 26.6029 21.7118 26.5809 21.9758C26.5564 22.2422 26.1995 22.5795 25.9135 22.692C25.5958 22.8166 25.1924 22.7213 24.8258 22.7213C24.8258 22.736 24.8258 22.7482 24.8258 22.7629Z" fill="#051036"/>
<path d="M5.66142 14.3195C5.66142 14.0359 5.55875 13.6888 5.68586 13.486C5.89364 13.1584 6.22363 12.7771 6.55607 12.7135C6.76874 12.6744 7.22095 13.1291 7.31384 13.4371C7.44828 13.882 7.46295 14.4295 7.32362 14.8719C7.19407 15.2923 6.80296 15.6297 6.52674 16.0061C6.23586 15.6468 5.91808 15.3046 5.6712 14.9184C5.5832 14.7741 5.66142 14.5224 5.66142 14.3195Z" fill="#051036"/>
<path d="M5.62225 9.29886C5.79092 8.75863 5.83248 8.23552 6.1087 7.90307C6.25048 7.73196 7.12559 7.87863 7.13048 7.92507C7.20625 8.85152 7.22336 9.78531 7.16714 10.7118C7.1647 10.7729 6.24803 10.944 6.16003 10.8046C5.87403 10.3622 5.78114 9.79997 5.62225 9.29886Z" fill="#051036"/>
<path d="M49.3803 15.1091C49.3803 15.3902 49.4805 15.7299 49.3558 15.9377C49.1749 16.2408 48.862 16.5929 48.554 16.6515C48.3267 16.6931 47.8158 16.3288 47.784 16.0942C47.6838 15.3902 47.6887 14.6495 47.7963 13.9455C47.828 13.7279 48.3218 13.4224 48.5883 13.437C48.8547 13.4517 49.2165 13.767 49.3289 14.0359C49.4585 14.3439 49.3583 14.7448 49.3583 15.1066C49.3656 15.1091 49.3729 15.1091 49.3803 15.1091Z" fill="#051036"/>
<path d="M49.3729 20.1595C49.3729 20.4822 49.478 20.8587 49.346 21.1105C49.1895 21.4087 48.8253 21.7876 48.554 21.7876C48.2753 21.7852 47.8402 21.4136 47.7571 21.1227C47.6178 20.6387 47.5811 20.0495 47.7302 19.5777C47.8549 19.1817 48.3022 18.8859 48.6078 18.5437C48.8693 18.881 49.1627 19.2013 49.3778 19.568C49.4658 19.7171 49.3924 19.9615 49.3924 20.162C49.3851 20.1595 49.3802 20.1595 49.3729 20.1595Z" fill="#051036"/>
</svg>
