<svg width="84" height="52" viewBox="0 0 84 52" fill="none" xmlns="http://www.w3.org/2000/svg">
<g clip-path="url(#clip0)">
<path d="M52.2328 20.9746C55.0497 16.7823 57.8725 12.7505 60.5059 8.59928C62.0051 6.23583 63.3521 6.18491 64.9567 8.61495C71.0611 17.8612 77.2825 27.0292 83.461 36.2265C83.5703 36.389 83.6835 36.5476 83.7831 36.716C84.0915 37.2369 84.1149 37.8184 83.541 38.0495C83.2072 38.1827 82.6703 37.9477 82.2838 37.7558C82.0554 37.6422 81.9403 37.2956 81.7763 37.0528C78.0321 31.4819 74.2879 25.9091 70.5418 20.3383C70.3251 20.0171 70.0986 19.7038 69.8293 19.32C68.9176 19.8428 68.0372 20.3206 67.188 20.8454C66.4267 21.3173 65.7239 21.2997 65.027 20.7436C64.9763 20.7025 64.9118 20.675 64.8689 20.6281C63.4282 19.0048 62.0051 19.136 60.2658 20.3324C58.382 21.6267 57.9837 21.3976 56.8769 19.4003C56.7071 19.0929 56.5236 18.7933 56.2542 18.3292C55.323 19.7175 54.4328 20.9844 53.6325 22.3062C53.5114 22.5059 53.7301 23.0228 53.9272 23.2911C58.2453 29.1361 62.583 34.9674 66.9167 40.8007C69.23 43.9141 71.5471 47.0236 73.8584 50.139C74.0322 50.374 74.2938 50.6265 74.3035 50.8791C74.3152 51.2218 74.2254 51.7074 73.9931 51.8837C73.7628 52.0579 73.2728 52.0109 72.9488 51.9013C72.7125 51.821 72.5486 51.494 72.3748 51.261C64.0529 40.0683 55.733 28.8718 47.413 17.6772C47.2588 17.4696 47.0928 17.2699 46.8508 16.9624C45.4667 17.8084 44.0885 18.6445 42.7162 19.4904C40.9417 20.583 40.8499 20.6261 39.3488 19.2378C38.6401 18.5818 38.1638 18.5564 37.5196 19.2574C37.0609 19.7567 36.5065 20.1777 35.9599 20.5869C35.0424 21.2723 34.1483 21.0353 33.6446 19.9956C33.4182 19.5276 33.2327 19.0381 33.02 18.5622C32.8228 18.1197 32.6139 17.6811 32.3387 17.0897C31.3177 17.7633 30.3553 18.3958 29.3949 19.0322C28.1338 19.8683 27.8214 19.8644 26.5994 18.9989C25.2485 18.0414 23.8957 17.0897 22.3613 16.0049C22.1349 16.3143 21.9534 16.6276 21.7132 16.8861C15.2185 23.8883 8.71793 30.8828 2.21735 37.8791C2.10608 37.9986 1.99286 38.1141 1.88354 38.2375C1.4326 38.7466 0.905524 39.1167 0.306221 38.539C-0.30089 37.9536 0.105152 37.4229 0.554141 36.9392C7.20894 29.7745 13.8598 22.6077 20.5107 15.441C24.946 10.6631 29.3773 5.88532 33.8145 1.10945C35.263 -0.449218 36.321 -0.370893 37.6036 1.35422C42.2867 7.65938 46.9718 13.9626 51.6589 20.2658C51.8111 20.4734 51.979 20.6633 52.2328 20.9746ZM34.9369 19.8428C35.4757 19.3925 35.874 19.0655 36.2683 18.7306C38.1052 17.1739 38.3005 16.5649 40.5396 18.6582C40.7152 18.8227 41.1135 18.9911 41.2618 18.9049C42.8762 17.963 44.4614 16.9703 46.1265 15.9462C42.601 11.2056 39.1555 6.56871 35.6592 1.86725C31.5032 6.34548 27.4388 10.7278 23.3218 15.1629C24.8366 16.236 26.2285 17.2483 27.6594 18.2078C27.8449 18.3312 28.2743 18.2646 28.4949 18.1295C29.4378 17.5538 30.3377 16.9076 31.2669 16.3084C32.3582 15.6055 33.139 15.8424 33.6856 17.0329C34.0897 17.9141 34.4743 18.8031 34.9369 19.8428ZM58.5909 19.9094C59.7075 19.2887 60.7109 18.7541 61.6908 18.1784C62.4248 17.7477 63.0905 17.7711 63.7679 18.2959C64.3848 18.7757 65.0173 19.2378 65.6712 19.6627C65.8801 19.7978 66.2471 19.9173 66.4287 19.8233C67.3403 19.3533 68.2129 18.809 69.1499 18.2626C66.985 15.0415 64.9001 11.9418 62.8231 8.85188C62.6903 8.91063 62.6083 8.92042 62.5791 8.9635C60.8065 11.5815 59.032 14.1976 57.2849 16.8293C57.1736 16.9977 57.1717 17.3404 57.2654 17.5264C57.6577 18.3057 58.1087 19.0557 58.5909 19.9094Z" fill="#051036"/>
<path d="M34.9372 19.8436C34.4745 18.8039 34.09 17.9149 33.6859 17.0337C33.1393 15.8432 32.3584 15.6063 31.2672 16.3092C30.338 16.9084 29.4381 17.5546 28.4952 18.1303C28.2746 18.2654 27.8451 18.3339 27.6597 18.2086C26.2307 17.2511 24.8369 16.2387 23.3221 15.1637C27.4391 10.7266 31.5034 6.34628 35.6595 1.86804C39.1557 6.5695 42.6012 11.2063 46.1268 15.947C44.4616 16.9711 42.8765 17.9638 41.2621 18.9057C41.1137 18.9919 40.7155 18.8235 40.5398 18.659C38.2988 16.5657 38.1035 17.1747 36.2686 18.7314C35.8742 19.0643 35.476 19.3933 34.9372 19.8436Z" fill="#051036"/>
<path d="M58.5911 19.9102C58.1089 19.0565 57.658 18.3065 57.2637 17.5291C57.17 17.3431 57.1719 17.0004 57.2832 16.832C59.0323 14.2003 60.8068 11.5842 62.5773 8.96623C62.6066 8.92119 62.6886 8.91336 62.8214 8.85461C64.8984 11.9445 66.9833 15.0443 69.1482 18.2654C68.2112 18.8117 67.3386 19.356 66.4269 19.826C66.2454 19.92 65.8784 19.8005 65.6695 19.6654C65.0156 19.2405 64.3831 18.7764 63.7662 18.2987C63.0888 17.7739 62.4251 17.7484 61.6891 18.1812C60.7111 18.7529 59.7077 19.2895 58.5911 19.9102Z" fill="#051036"/>
</g>
<defs>
<clipPath id="clip0">
<rect width="84" height="52" fill="white"/>
</clipPath>
</defs>
</svg>
