<?xml version="1.0" encoding="utf-8"?>
<!-- Generator: Adobe Illustrator 24.1.0, SVG Export Plug-In . SVG Version: 6.00 Build 0)  -->
<svg width="56" height="50" version="1.1" id="Capa_1" xmlns="http://www.w3.org/2000/svg" xmlns:xlink="http://www.w3.org/1999/xlink" x="0px" y="0px"
	 viewBox="0 0 71 74" style="enable-background:new 0 0 71 74;" xml:space="preserve">
<style type="text/css">
	.st0{fill:#051036;}
	.st1{fill:#051036;}
</style>
<polygon class="st1" points="51.2,7.2 52.7,3.8 56.1,2.7 59.6,3.8 60.6,6.6 62.4,8 63.6,8.4 64.2,9.9 66.4,9.9 67.2,11.4 67.2,13 
	65,13.9 59.2,13.9 50.7,13.9 48.6,13 47,11.2 48.1,8.3 49.4,7.2 "/>
<polygon class="st1" points="51.2,36.4 54.7,40.1 57.2,38.3 61.6,42.8 65,39.6 56.1,30.2 "/>
<polygon class="st1" points="67.9,10.7 70,8.4 69,5 66.5,5 63.6,6.1 63.6,8.4 64.2,9.9 "/>
<g>
	<g>
		<g>
			<path class="st0" d="M69.8,48.5H57.2c-0.3,0-0.6,0.1-0.8,0.3l-6.5,6.5H35.5v-1.1c0-0.5-0.2-0.8-0.7-1l-3.9-1.9V39.3
				c0-0.3-0.1-0.7-0.3-0.9l-8.8-7.7v-3.8l3.2,0.8c0.1,0,0.2,0,0.2,0h8.9c0.3,0.5,0.9,0.8,1.5,0.9L39,53l2.3-0.3L38,28.5
				c1.4-0.5,2.2-1.8,2.2-3.2V23c0-1.9-1.5-3.4-3.4-3.4l-1.1-8.1l-2.3,0.3l1.3,8.7c-0.1,0.1-0.2,0.2-0.3,0.3h-7.6l-7.8-2.7
				c-0.2-0.2-0.5-0.3-0.7-0.6l-1-0.6v-1.7h1.1c0.7,0,1.1-0.5,1.1-1.1V8.4H24V6.1h-4.7c-0.6-3.1-3.7-5.2-6.8-4.5C10,2.2,8,4.5,8,7.2
				v2.3c0,1.8,0.8,3.4,2.3,4.6v2.3H1.1c-0.7,0-1.1,0.5-1.1,1.1v17.2c0,0.7,0.5,1.1,1.1,1.1H8V37c0,1.5,0.9,2.7,2.3,3.2v23.1H8
				c-0.3,0-0.6,0.1-0.8,0.3l-6.9,6.9c-0.5,0.5-0.5,1.1,0,1.6c0.2,0.2,0.5,0.3,0.8,0.3h68.7c0.7,0,1.1-0.5,1.1-1.1V49.6
				C71,48.9,70.5,48.5,69.8,48.5z M35.5,23.3c0-0.7,0.5-1.1,1.1-1.1c0.7,0,1.1,0.5,1.1,1.1v2.3c0,0.7-0.5,1.1-1.1,1.1
				s-1.1-0.5-1.1-1.1V23.3z M33.2,54.9v0.5h-6.9V53h3.2L33.2,54.9z M26.3,50.7v-2.3h2.3v2.3H26.3z M26,23.2c0.1,0.1,0.2,0.1,0.3,0.1
				h6.9v2.3h-7.9l-3.5-0.9c0-1.1-0.2-2.2-0.7-3.2L26,23.2z M13.7,3.8c1.5,0,2.7,0.9,3.2,2.3h-6.4C11,4.7,12.2,3.8,13.7,3.8z
				 M10.3,8.4h6.9V13h-3.4c-1.9,0-3.4-1.5-3.4-3.4V8.4z M11.4,35.9c0.7,0,1.1-0.5,1.1-1.1V23.3h2.3v10.3h2.3V22.1
				c0-0.7-0.5-1.1-1.1-1.1h-3.4v-5.8c0.3,0.1,0.8,0.1,1.1,0.1h1.1v2.3c0,0.3,0.1,0.7,0.5,0.9l1.4,1c1.7,1.3,2.7,3.3,2.7,5.5v6.3
				c0,0.3,0.1,0.7,0.3,0.9l8.8,7.7v6.3h-2.3v-2.3c0-0.3-0.2-0.7-0.5-0.9l-6.6-4.4l0.2-2.5l-2.3-0.2l-1.7,18.3h-2.9V39.3
				c0-0.7-0.5-1.1-1.1-1.1c-0.7,0-1.1-0.5-1.1-1.1v-1.1H11.4L11.4,35.9z M15.7,61l1.9,1.4l-0.9,0.9h-4.1V61H15.7z M12.6,58.8v-2.3
				h2.6L15,58.8H12.6z M17.3,59.3L19,41.1l5,3.4v11.6l-4.7,4.6L17.3,59.3z M2.3,18.7h8V21H4.6v2.3h5.7V29h-8V18.7z M2.3,33.6v-2.3h8
				v2.3H2.3z M68.7,70.2H3.9l4.6-4.6h8.7c0.3,0,0.6-0.1,0.8-0.3l7.7-7.7h24.7c0.3,0,0.6-0.1,0.8-0.3l6.5-6.5h11V70.2z"/>
		</g>
	</g>
	<g>
		<g>
			<path class="st0" d="M49.6,60.2l-1.9,1.9h-8.7c-0.3,0-0.6,0.1-0.8,0.3L34.7,66l1.6,1.6l3.1-3.1h8.7c0.3,0,0.6-0.1,0.8-0.3
				l2.3-2.3L49.6,60.2z"/>
		</g>
	</g>
	<g>
		<g>
			<path class="st0" d="M70.4,6.1c-1.3-2.2-4-3-6.2-1.7c-0.8,0.5-1.5,1.1-1.9,2.1c-0.2-0.1-0.3-0.1-0.6-0.2
				c-0.6-3.1-3.5-5.2-6.6-4.6c-2.3,0.5-4.1,2.2-4.6,4.5c-2.5,0-4.6,1.9-4.6,4.6s1.9,4.6,4.5,4.6h14.9c1.7,0,3.1-1.3,3.4-2.9
				C70.9,11.1,71.7,8.4,70.4,6.1z M65.8,12.7c-0.1,0.1-0.3,0.2-0.6,0.2H50.4c-1.3,0-2.3-1-2.3-2.3s1-2.3,2.3-2.3
				c0.2,0,0.6,0,0.8,0.1c0.6,0.2,1.3-0.1,1.5-0.7c0-0.1,0-0.2,0-0.5V7.2c0-1.9,1.5-3.4,3.4-3.4c1.9,0,3.4,1.5,3.4,3.4
				c0,0.7,0.5,1.1,1.1,1.1c1,0,1.9,0.7,2.2,1.7c0.1,0.6,0.8,1,1.4,0.8c0.1,0,0.2-0.1,0.3-0.1c0.6-0.3,1.3-0.2,1.6,0.3
				C66.5,11.7,66.4,12.4,65.8,12.7z M68.1,9.9c-0.8-1.1-2.1-1.7-3.4-1.5c-0.1-0.2-0.3-0.5-0.5-0.7c0.2-0.9,1.1-1.6,2.2-1.6
				c1.3,0,2.3,1,2.3,2.3C68.7,9,68.5,9.5,68.1,9.9z"/>
		</g>
	</g>
	<g>
		<g>
			<path class="st0" d="M56.9,29.3c-0.5-0.5-1.1-0.5-1.6,0L41.6,43.1l1.6,1.6l7.2-7.2l3.8,3.8c0.5,0.5,1.1,0.5,1.6,0l1.5-1.5
				l3.8,3.8c0.5,0.5,1.1,0.5,1.6,0l2.6-2.6l3.8,3.8l1.6-1.6L56.9,29.3z M61.8,41.1L58,37.4c-0.5-0.5-1.1-0.5-1.6,0l-1.5,1.5l-3-3
				l4.1-4.1l7.6,7.6L61.8,41.1z"/>
		</g>
	</g>
</g>
</svg>
