<svg width="56" height="50" viewBox="0 0 56 50" fill="none" xmlns="http://www.w3.org/2000/svg">
<g clip-path="url(#clip0)">
<path d="M3.50446 24.2704C2.76835 24.7343 2.03449 25.196 1.12451 25.7675C2.18578 21.173 5.22056 18.2482 8.6821 15.6999C7.6118 14.4022 6.52343 13.174 5.53894 11.8673C4.32638 10.2559 3.82962 8.53011 4.30154 6.42782C4.75541 4.41518 4.74863 2.30392 4.95185 0.136638C6.25473 0.0761243 7.34761 0.777635 8.30501 1.53742C10.0843 2.95165 11.7824 4.47793 13.4194 6.05353C13.9997 6.6116 14.3926 6.69005 15.1265 6.40765C18.8635 4.97325 22.6886 4.94187 26.5972 5.67476C27.742 5.88992 29.002 5.62545 30.1897 5.44615C33.588 4.93067 36.9051 5.166 40.1047 6.42558C40.8702 6.72591 41.2269 6.53316 41.8027 6.02664C43.8688 4.20898 46.0004 2.46081 48.1726 0.773152C48.7213 0.347315 49.5206 0.235253 50.1506 -0.00231934C50.4916 2.78803 51.0087 5.39685 51.047 8.01014C51.0674 9.27196 50.3696 10.6548 49.6742 11.7866C48.8251 13.1695 47.6352 14.3461 46.5287 15.6909C49.9451 18.228 53.0047 21.1394 54.0592 25.7294C53.1696 25.1803 52.4244 24.7209 51.677 24.2592C54.5989 28.0245 55.825 31.6239 54.8202 33.715C54.0728 32.7109 53.3028 31.6755 52.5328 30.6423C52.4041 30.696 52.2754 30.7498 52.1444 30.8059C53.8605 34.8289 53.147 38.5964 51.0403 42.1959C49.7532 44.3946 48.3081 46.461 45.761 47.6914C45.5691 47.0728 45.4201 46.5215 45.2281 45.9881C44.4898 43.9284 43.5256 42.0995 41.0576 41.6378C39.5447 41.3554 38.4315 41.9068 37.6841 43.2336C37.0112 44.4282 36.2706 45.6228 35.3425 46.6224C34.7306 47.2813 33.7709 47.6645 32.9084 48.0455C31.3774 48.7202 29.8149 49.3253 28.2411 49.8946C27.8572 50.0335 27.3401 50.0335 26.954 49.8991C25.4818 49.3881 24.0705 48.6731 22.5734 48.2652C20.9002 47.8102 19.778 46.7792 18.8432 45.4435C18.4164 44.8338 17.8813 44.2332 17.678 43.5474C17.2355 42.0592 16.1313 41.5683 14.8081 41.584C13.4285 41.5997 12.0849 42.0659 11.3466 43.3255C10.5675 44.6545 9.97594 46.0934 9.24435 47.6018C6.25021 46.0777 4.61089 43.2896 3.22447 40.3088C1.7816 37.2046 1.66869 34.0333 3.04609 30.8193C2.91738 30.761 2.78641 30.705 2.65771 30.6467C1.90579 31.6553 1.15387 32.6616 0.422269 33.6455C-0.733837 32.2313 0.51259 28.4369 3.50446 24.2704ZM43.363 12.4545C41.7417 9.15542 38.8402 8.38219 35.8348 7.95635C32.8542 7.535 29.7968 7.15847 27.8233 9.76055C26.5588 9.09042 25.5043 8.10876 24.3595 7.99445C19.5974 7.51482 14.9458 7.69861 11.8095 12.1878C10.6353 8.64666 10.0121 4.8074 6.44215 2.33978C5.26572 5.06738 4.92927 7.57534 6.58892 10.0205C7.69535 11.6522 8.87629 13.2345 10.0279 14.8437C10.0279 13.6021 10.0279 12.3044 10.0279 11.1793C11.5746 12.7078 11.7869 14.651 10.2266 16.4126C9.34822 17.4055 8.18308 18.1495 7.15116 19.0079C6.02215 19.9493 4.94734 20.9332 4.48219 22.4438C5.35378 22.2959 6.09215 22.1681 7.11729 21.9933C4.95185 24.3869 2.71416 26.366 2.0074 29.5328C3.63317 28.9994 4.96089 28.1903 6.62279 28.4301C2.78867 34.2708 3.64898 41.9359 8.4292 44.5335C10.2853 40.7772 13.1733 38.964 17.4974 40.1519C17.4206 37.886 17.6826 35.8061 19.2496 34.1341C19.0893 36.1804 18.8703 38.1975 18.7958 40.2169C18.7371 41.8216 19.4732 42.8996 20.9815 43.3367C22.5757 43.8006 24.2624 44.0203 25.6556 42.8078C26.3466 42.2071 26.8411 41.3846 27.5546 40.5037C26.6356 39.7978 25.834 38.9909 24.8721 38.4866C23.4405 37.7358 23.1741 36.6129 23.4179 35.2189C23.5873 34.2596 23.8289 33.3138 24.0366 32.3635C24.3392 33.529 24.4611 34.672 24.6508 35.8016C24.8089 36.7519 26.9675 38.7264 27.6833 38.6368C28.5075 38.5337 30.4065 36.6645 30.5533 35.7523C30.7362 34.6182 30.8649 33.4752 31.0184 32.3366C31.4339 33.5178 31.7049 34.7056 31.8358 35.9092C31.9465 36.9222 31.6236 37.7313 30.6029 38.3028C29.5552 38.89 28.6475 39.7283 27.7353 40.4141C28.9952 42.6934 30.5329 43.9911 33.159 43.6191C35.1145 43.3412 36.458 42.169 36.406 40.1967C36.3519 38.1818 36.1215 36.1714 35.9635 34.1027C37.4967 35.8307 37.8241 37.8972 37.6954 40.1496C42.0624 38.9685 44.9436 40.7951 46.8381 44.6411C48.9855 43.07 50.0242 40.9654 50.7219 38.6547C51.8532 34.9051 50.7196 31.5836 48.5993 28.457C48.6603 28.3607 48.7235 28.2643 48.7845 28.1679C50.2138 28.5713 51.6432 28.9748 53.208 29.4163C52.4515 26.3637 50.2567 24.3645 48.0868 21.9866C49.1503 22.1614 49.9135 22.2869 50.8212 22.4348C50.5435 21.935 50.4103 21.4688 50.1054 21.1797C48.7032 19.8484 47.319 18.4857 45.8062 17.2844C43.5911 15.5273 43.3472 12.8893 45.1807 11.1927C45.1807 12.3089 45.1807 13.5931 45.1807 15.0252C45.7023 14.1713 46.0771 13.49 46.5152 12.8557C47.2761 11.753 48.1387 10.7176 48.8477 9.58574C50.1483 7.51258 50.0377 4.24036 48.649 2.49667C48.3442 2.68494 47.9987 2.84182 47.7277 3.0794C47.3665 3.39765 47.0255 3.75401 46.741 4.14175C44.9797 6.56902 44.1804 9.39523 43.363 12.4545ZM33.0348 46.452C33.1274 46.2593 33.2222 46.0688 33.3148 45.876C32.9151 45.616 32.5471 45.2776 32.1113 45.1095C30.5894 44.5245 29.0449 43.9979 27.5095 43.4487C25.9379 44.7487 23.3163 44.1772 22.0044 46.4005C23.795 47.0908 25.3847 47.7183 26.9879 48.31C27.2837 48.4198 27.672 48.5028 27.9453 48.4041C29.6523 47.7856 31.3413 47.1087 33.0348 46.452Z" fill="#051036"/>
<path d="M33.0349 46.452C31.3414 47.1087 29.6524 47.7833 27.9453 48.4041C27.6721 48.5027 27.2837 48.4198 26.9879 48.31C25.3847 47.7183 23.7951 47.0908 22.0045 46.4004C23.3164 44.1771 25.9402 44.7487 27.5095 43.4487C29.045 43.9978 30.5894 44.5245 32.1113 45.1095C32.5471 45.2776 32.9152 45.616 33.3149 45.876C33.22 46.0687 33.1275 46.2615 33.0349 46.452Z" fill="#051036"/>
<path d="M34.3919 30.4294C32.2107 28.1456 29.5033 21.7603 29.7607 19.4675C30.9304 20.5254 31.9826 20.243 33.1794 19.4563C35.1529 18.1586 37.3093 17.5266 39.766 17.9547C40.3915 18.0645 41.1682 17.3137 41.7711 17.0111C41.4956 18.2236 40.8634 19.5079 39.2625 20.2721C39.1834 18.9879 38.3976 18.7772 37.4244 19.1358C35.8935 19.7006 34.3671 20.2968 32.8971 21.0005C31.8381 21.507 31.5874 22.4932 31.9578 23.5645C32.6939 25.6959 33.4842 27.8072 34.2497 29.9296C34.2971 30.0574 34.3264 30.1941 34.3919 30.4294Z" fill="#051036"/>
<path d="M20.9296 30.3329C21.6905 28.1051 22.4899 25.8885 23.1966 23.6428C23.655 22.1837 23.4563 21.5943 22.0925 20.9107C20.6744 20.198 19.1615 19.6623 17.6622 19.1267C16.7319 18.7927 16.0297 19.0415 16.0003 20.2719C14.3655 19.5749 13.7536 18.2615 13.4262 16.6971C14.09 17.9343 15.0429 18.0621 16.3639 17.8872C18.3374 17.625 20.207 18.2436 21.8644 19.3732C23.0363 20.1733 24.2082 20.7672 25.6533 19.2275C25.1882 23.6786 23.0295 27.0091 20.9296 30.3329Z" fill="#051036"/>
<path d="M39.2399 13.5842C38.156 13.0395 37.1083 12.3963 35.9793 11.9705C33.4142 11 30.8468 11.334 28.3043 12.1722C27.9453 12.291 27.4824 12.3941 27.1527 12.273C23.2825 10.8476 19.6267 11.0516 16.2307 13.5528C16.1562 13.6066 16.0523 13.62 15.6639 13.7567C17.2355 11.9481 18.938 10.7826 20.9883 10.4823C22.7992 10.2156 24.6824 10.4442 26.5317 10.3971C27.812 10.3635 29.0901 10.2357 30.3704 10.1483C33.8793 9.913 36.9231 10.8745 39.2399 13.5842Z" fill="#051036"/>
<path d="M27.7081 19.3531C27.9678 21.3971 28.232 23.4433 28.4826 25.4874C28.6949 27.2176 28.8597 28.9546 29.0968 30.6803C29.2639 31.8951 28.9049 33.0426 28.022 33.5065C27.7872 33.6298 27.3153 33.6164 27.1233 33.4572C26.2675 32.7535 25.9288 31.8749 26.0892 30.7027C26.5837 27.1011 26.972 23.4859 27.4033 19.8775C27.4236 19.7005 27.4553 19.5256 27.4823 19.3508C27.5569 19.3531 27.6336 19.3531 27.7081 19.3531Z" fill="#051036"/>
<path d="M37.2619 15.7783C34.0961 14.559 31.0749 14.4941 28.0424 15.6438C27.8143 15.729 27.5027 15.7873 27.295 15.7043C24.2015 14.4604 21.1148 14.5703 17.8316 15.8119C19.0419 14.4223 20.4622 13.7634 21.9841 13.6222C23.6686 13.4653 25.3892 13.7186 27.094 13.7096C28.0559 13.7051 29.0223 13.5774 29.973 13.425C31.96 13.1022 36.0832 13.9225 37.2619 15.7783Z" fill="#051036"/>
<path d="M33.3193 25.7385C33.4616 25.2454 33.5699 24.7411 33.7483 24.2637C34.428 22.4282 35.5999 21.7199 37.5441 21.9194C38.1763 21.9844 38.8153 22.0606 39.4476 22.0382C40.0324 22.018 40.615 21.8746 41.184 21.7849C39.3031 25.3754 37.0405 26.4333 33.3193 25.7385Z" fill="#051036"/>
<path d="M14.0991 21.9754C15.0971 21.9754 16.2261 22.1323 17.2964 21.944C19.577 21.5406 20.846 22.2488 21.7063 25.084C21.7695 25.2924 21.8102 25.5053 21.8621 25.7182C18.3419 26.4041 16.0364 25.539 14.0991 21.9754Z" fill="#051036"/>
<path d="M45.6007 29.7659C46.7139 26.041 46.0478 22.8315 44.2707 19.7363C47.7391 21.7041 48.4007 26.1284 45.6007 29.7659Z" fill="#051036"/>
<path d="M9.46337 29.4903C6.91408 26.0634 7.27084 22.1547 11.0214 19.5459C9.18338 22.789 8.48565 26.0186 9.46337 29.4903Z" fill="#051036"/>
<path d="M14.2775 37.5093C11.1072 36.2072 8.99598 33.9278 8.09729 30.5391C9.06824 31.7516 10.0324 32.9686 11.0124 34.1744C11.9969 35.3891 12.9949 36.5949 13.9862 37.8052C14.0833 37.7043 14.1804 37.6057 14.2775 37.5093Z" fill="#051036"/>
<path d="M47.3145 30.5055C46.1991 33.9077 44.1172 36.2207 41.0327 37.4578C43.0559 35.2211 45.1469 32.9059 47.3145 30.5055Z" fill="#051036"/>
<path d="M43.7423 24.8218C43.9433 29.116 41.3714 31.5657 38.1379 30.4764C41.4143 29.9968 42.8007 27.7601 43.7423 24.8218Z" fill="#051036"/>
<path d="M17.0706 30.472C13.8349 31.5791 11.2607 29.0914 11.4617 24.8531C12.4236 27.7264 13.7581 29.9946 17.0706 30.472Z" fill="#051036"/>
<path d="M12.2317 14.7003C12.1504 11.7845 14.4265 9.77632 18.1816 9.58582C15.5171 10.749 13.4081 12.1924 12.2317 14.7003Z" fill="#051036"/>
<path d="M43.0107 14.9805C41.7937 12.2103 39.7389 10.7602 37.2212 9.68441C40.5337 9.59924 43.2456 11.91 43.0107 14.9805Z" fill="#051036"/>
<path d="M16.4813 38.1638C14.7516 35.7679 15.2236 33.6746 17.8406 32.155C16.6597 34.087 16.111 36.0346 16.4813 38.1638Z" fill="#051036"/>
<path d="M37.3115 32.0699C40.0188 33.78 40.4682 35.8823 38.6144 38.4037C39.075 36.0235 38.5534 34.0624 37.3115 32.0699Z" fill="#051036"/>
</g>
<defs>
<clipPath id="clip0">
<rect width="55.1724" height="50" fill="blue"/>
</clipPath>
</defs>
</svg>
